<?xml version="1.0" encoding="utf-8"?>
<!-- Generator: Adobe Illustrator 19.0.0, SVG Export Plug-In . SVG Version: 6.00 Build 0)  -->
<svg version="1.1" id="图层_1" xmlns="http://www.w3.org/2000/svg" xmlns:xlink="http://www.w3.org/1999/xlink" x="0px" y="0px"
	 viewBox="-159 385.9 250 70" style="enable-background:new -159 385.9 250 70;" xml:space="preserve">
<style type="text/css">
	.st0{fill:#717071;}
	.st1{fill:#D61519;}
	.st2{fill:#E60014;}
	.st3{fill:#0096FF;}
	.st4{fill:#69CD00;}
	.st5{fill:#FFB400;}
	.st6{fill:#FFFFFF;}
	.st7{fill:#63696B;}
</style>
<g>
	<g id="XMLID_599_">
		<g id="XMLID_600_">
			<g id="XMLID_644_">
				<path id="XMLID_654_" class="st0" d="M-82.3,399.6c0,0-1.1,2.1-1.1,2.2c-0.1,0.2,0,0.4,0.2,0.4h1.6c0,0,3.7-7.3,3.8-7.4
					c0-0.1,0-0.2-0.1-0.2h-1.5c-0.3,0-0.4,0.1-0.5,0.3c0,0.1-1.2,2.3-1.2,2.3c-0.1,0.2-0.3,0.2-0.3,0c0,0-1-2.1-1-2.2
					c-0.1-0.2-0.3-0.3-0.6-0.3h-1.4c-0.1,0-0.1,0.1-0.1,0.1C-84.5,394.8-82.3,399.6-82.3,399.6"/>
				<path id="XMLID_651_" class="st0" d="M-77.3,398.9c0.6,0.5,1.4,0.7,2.3,0.7c1,0,1.8-0.3,2.3-0.8s0.8-1.2,0.8-1.8
					c0-0.8-0.3-1.4-0.8-1.8c-0.6-0.5-1.4-0.7-2.4-0.7s-1.8,0.3-2.3,0.8s-0.8,1.2-0.8,1.8C-78.1,397.8-77.8,398.5-77.3,398.9
					 M-76,396.6c0.5-0.9,1.1-1.3,1.8-1s0.8,1,0.2,2c-0.5,0.9-1.1,1.3-1.8,1C-76.4,398.2-76.5,397.5-76,396.6"/>
				<path id="XMLID_650_" class="st0" d="M-63.1,399.6c0,0-1.1,2.1-1.1,2.2c-0.1,0.2,0,0.4,0.2,0.4h1.6c0,0,3.7-7.3,3.8-7.4
					c0-0.1,0-0.2-0.1-0.2h-1.5c-0.3,0-0.4,0.1-0.5,0.3c0,0.1-1.2,2.3-1.2,2.3c-0.1,0.2-0.3,0.2-0.3,0c0,0-1-2.1-1-2.2
					c-0.1-0.2-0.3-0.3-0.6-0.3h-1.4c-0.1,0-0.1,0.1-0.1,0.1C-65.3,394.8-63.1,399.6-63.1,399.6"/>
				<path id="XMLID_647_" class="st0" d="M-58.1,398.9c0.6,0.5,1.4,0.7,2.4,0.7s1.8-0.3,2.3-0.8s0.8-1.2,0.8-1.8
					c0-0.8-0.3-1.4-0.8-1.8c-0.6-0.5-1.4-0.7-2.4-0.7s-1.8,0.3-2.3,0.8s-0.8,1.2-0.8,1.8C-58.9,397.8-58.6,398.5-58.1,398.9
					 M-56.8,396.6c0.5-0.9,1.1-1.3,1.8-1s0.8,1,0.2,2c-0.5,0.9-1.1,1.3-1.8,1C-57.2,398.2-57.3,397.5-56.8,396.6"/>
				<path id="XMLID_646_" class="st0" d="M-71.3,399.5h1.7c0.2,0,0.3-0.1,0.3-0.3v-3.5c1.2-0.3,1.9,0,1.9,0.5v3
					c0,0.2,0.1,0.3,0.3,0.3h1.7v-3.2c0-1.6-2.1-2.4-5.6-1.4c-0.2,0.1-0.3,0.2-0.3,0.5L-71.3,399.5L-71.3,399.5L-71.3,399.5z"/>
				<path id="XMLID_645_" class="st0" d="M-46.5,399.3c0.2-0.1,0.3-0.2,0.3-0.5v-4.1l0,0h-1.7c-0.2,0-0.3,0.1-0.3,0.3v3.5
					c-1.2,0.3-1.9,0-1.9-0.5v-3c0-0.2-0.1-0.3-0.3-0.3h-1.7v3.2C-52.1,399.5-50.1,400.3-46.5,399.3"/>
			</g>
			<g id="XMLID_601_">
				<g id="XMLID_634_">
					<g id="XMLID_640_">
						<path id="XMLID_643_" class="st1" d="M-46.2,425h-7.1v0.8c0,6.2-2.1,9.2-6.4,9.1c-1.3,0-3.1-0.4-5.3-1.1V425h-7.3v26.3h1l0,0
							c0.1,0,0.2,0,0.3,0h0.1c0.9,0,2.3-0.1,3.3-0.6c2.2-1.1,2.7-2.2,2.7-6.7v-4.1c2.1,0.6,3.8,0.9,5.3,0.9
							c9.2,0.1,13.7-4.9,13.5-15.1V425L-46.2,425L-46.2,425z"/>
						<path id="XMLID_642_" class="st2" d="M-59.7,434.9c-1.3,0-3.1-0.4-5.3-1.1v-5.5c-2.3,1.3-4.8,1.9-7.3,2.5v9.1
							c2.5,1.8,5,3.6,7.3,5.6V440c2.1,0.6,3.8,0.9,5.3,0.9c3.8,0.1,6.8-0.8,9-2.5c-1.6-1.6-3.1-3.3-4.7-5
							C-56.5,434.5-57.9,435-59.7,434.9z"/>
						<path id="XMLID_641_" class="st2" d="M-46.2,425h-7.1v0.8c0,1.1-0.1,2.2-0.2,3.1c2.4-0.1,4.8-0.1,7.2-0.1
							c0.1-0.9,0.1-1.9,0.1-3V425z"/>
					</g>
					<g id="XMLID_638_">
						<path id="XMLID_639_" class="st3" d="M-57.9,408.1c-2.7,0-5.1,0.7-7.3,2v-0.2v-1.7h-1.5c-0.9,0-2,0.2-2.9,0.6
							c-2.1,1.1-2.6,2.1-2.7,6.3v1.8v1v6.4h7.3v-7.6c2.2-1.3,4.4-2,6.4-2c2.8-0.1,4.5,1.5,5.1,5l5.5-6.2
							C-49.9,410-53.2,408.2-57.9,408.1z"/>
					</g>
					<g id="XMLID_636_">
						<path id="XMLID_637_" class="st4" d="M-48.1,413.5l-5.5,6.2c0.2,0.9,0.2,2,0.2,3.2v1.4h7.1v-1.4
							C-46.2,419-46.8,415.9-48.1,413.5z"/>
					</g>
					<path id="XMLID_635_" class="st5" d="M-66.8,408.2c-0.9,0-2,0.2-2.9,0.6c-2.1,1.1-2.6,2.1-2.7,6.3v2.8l7.1-8v-1.7L-66.8,408.2
						L-66.8,408.2z"/>
				</g>
				<path id="XMLID_633_" class="st5" d="M-86.5,408.6L-86.5,408.6c-0.3-0.1-0.5-0.1-0.8-0.2l-0.9-0.2c-0.3,0-1.9-0.2-2-0.2
					c-0.2,0-1.6,0-1.9,0l0,0c-1.8,0-3.5,0.1-5,0.2c-1,0.2-2.3,0.4-3.1,0.7c-1.5,0.7-2.5,1.9-2.6,6.4l0,0c0.4-0.1,1.3-0.2,1.4-0.2
					c0.7-0.1,1.4-0.2,2-0.3c0.6-0.1,1.3-0.1,1.9-0.2c1.7-0.1,3.3-0.2,4.9-0.2c0.3,0,1.4,0,1.4,0c0.4,0,0.8,0.1,1.2,0.2l0,0
					c2.3,0.5,3.4,2.2,3.2,5v0.9h-3.1c-6.4-0.3-10.7,1-12.9,3.8h23.4v-4.7C-79.1,413.6-81.4,409.9-86.5,408.6z"/>
				<g id="XMLID_631_">
					<path id="XMLID_632_" class="st1" d="M-150.9,425v16c0,0,2.7,0.3,4.4-0.6c2.3-1.1,2.7-2.3,2.7-7.1V425H-150.9z"/>
				</g>
				<path id="XMLID_630_" class="st4" d="M-148,402.8c-2,1-2.8,2.8-2.8,7.8c0,0,1-1,2.6-1.6c1.1-0.4,2-1,2.6-1.4
					c1.7-1.3,2-2.8,2-5.5C-143.8,402.1-146.5,401.9-148,402.8z"/>
				<path id="XMLID_629_" class="st4" d="M-92.1,408.1c-1.8,0-3.5,0.1-5,0.2c-1,0.2-2.3,0.4-3.1,0.7c-1.5,0.7-2.5,1.9-2.6,6.4
					c3.7-0.6,7.1-0.9,10.2-0.9c1-0.1,1.9,0,2.6,0.1l4.9-5.6C-86.8,408.3-89.2,408-92.1,408.1z"/>
				<path id="XMLID_628_" class="st5" d="M-130.5,408.1L-130.5,408.1c-0.1,0-0.2,0-0.3,0h-0.1c-0.9,0-2.3,0.1-3.2,0.6
					c-2.3,1.1-2.7,2.3-2.7,7.1v0.7l0,0v5.1l7.1-8v-5.5L-130.5,408.1L-130.5,408.1z"/>
				<rect id="XMLID_627_" x="-53.2" y="424.3" class="st6" width="7.1" height="0.7"/>
				<rect id="XMLID_626_" x="-72.3" y="424.3" class="st6" width="7.3" height="0.7"/>
				<g id="XMLID_624_">
					<path id="XMLID_625_" class="st4" d="M-98.5,424.3l3.2-3.6c-3.5,0.5-6,1.7-7.5,3.6H-98.5z"/>
				</g>
				<rect id="XMLID_623_" x="-118" y="424.3" class="st6" width="7.3" height="0.7"/>
				<g id="XMLID_621_">
					<polygon id="XMLID_622_" class="st4" points="-110.7,424.3 -110.7,412.8 -118,417.9 -118,424.3 					"/>
				</g>
				<rect id="XMLID_620_" x="-136.9" y="424.3" class="st6" width="7.1" height="0.7"/>
				<path id="XMLID_619_" class="st2" d="M-150.9,425v5.7c2.4,0.2,4.7,0.3,7.1,0.2V425L-150.9,425L-150.9,425z"/>
				<rect id="XMLID_618_" x="-150.9" y="424.3" class="st6" width="7.1" height="0.7"/>
				<g id="XMLID_612_">
					<path id="XMLID_615_" class="st1" d="M-104.7,430.7v1.1c0.2,6.1,3.4,9.1,10.2,9.1c2.7,0,5.3-0.6,8-1.8v1.8h7.1v-16h-23.8
						C-104.2,426.5-104.7,428.4-104.7,430.7z M-89.9,426.5h3.1v6.9c-1.8,1.2-4.1,1.8-6.9,1.8c-2.5,0-3.7-1-3.9-2.9v-1.5
						C-97.6,427.7-95.2,426.4-89.9,426.5z"/>
					<path id="XMLID_614_" class="st2" d="M-97.3,433.3c-2.2-2.3-4.6-4.3-6.9-6.2c-0.3,1.1-0.5,2.3-0.5,3.6v1.1
						c0.2,6.1,3.4,9.1,10.2,9.1c1,0,2.1-0.1,3.1-0.3c-1.4-2.1-2.9-4.1-4.6-5.9C-96.6,434.4-97,434-97.3,433.3z"/>
					<path id="XMLID_613_" class="st2" d="M-81.6,425c-1.7,4.8-3.5,9.7-5.5,14.4c0.2-0.1,0.4-0.2,0.6-0.3v1.8h1.5
						c0.9,0,2-0.2,2.9-0.6c2.1-1,2.6-2.1,2.7-5.9v-9.5h-2.2V425z"/>
				</g>
				<path id="XMLID_611_" class="st5" d="M-143.8,424.3v-14.8v-1.6c0,0-0.7,1-2.1,1.8c-1,0.6-1.8,0.9-2.8,1.4
					c-1.7,0.9-2.1,1.7-2.1,3v0.4v2.1v0.4v7.2h7V424.3L-143.8,424.3z"/>
				<g id="XMLID_609_">
					<polygon id="XMLID_610_" class="st4" points="-129.8,424.3 -129.8,412 -136.9,418.1 -136.9,424.3 					"/>
				</g>
				<path id="XMLID_608_" class="st3" d="M-112.5,408.1c-0.9,0-2,0.2-2.8,0.6c-2.3,1.1-2.7,2.3-2.7,7.1v0.7l0,0v6.9l7.3-8.3v-7
					L-112.5,408.1L-112.5,408.1z"/>
				<path id="XMLID_607_" class="st5" d="M-130.5,408.1L-130.5,408.1c-0.1,0-0.2,0-0.3,0h-0.1c-0.9,0-2.3,0.1-3.2,0.6
					c-2.3,1.1-2.7,2.3-2.7,7.1v0.7l0,0v5.1l7.1-8v-5.5L-130.5,408.1L-130.5,408.1z"/>
				<g id="XMLID_603_">
					<path id="XMLID_606_" class="st1" d="M-118,425v7.3c-2.7,1.6-5.2,2.4-7.5,2.4c-2.8,0-4.2-2-4.2-6V425h-7.1v3.7
						c-0.1,8.3,3.3,12.3,10.2,12.2c3.1,0,6-0.7,8.7-2v2h1l0,0c0.9,0,2.5,0,3.7-0.6c2.3-1.1,2.7-2.3,2.7-7.1v-0.7l0,0v-7.6h-7.5
						L-118,425L-118,425z"/>
					<path id="XMLID_605_" class="st2" d="M-136.9,425v3.7c0,0.5,0,1,0,1.5c2.4-0.4,4.8-1,7.1-1.7V425H-136.9z"/>
					<path id="XMLID_604_" class="st2" d="M-118,425v7.3c-2.7,1.6-5.2,2.4-7.5,2.4c-1.3,0-2.2-0.4-2.9-1.2c-1.4,2-3,3.9-4.5,5.8
						c1.6,1.2,3.7,1.7,6.4,1.6c1.7,0,3.3-0.2,4.9-0.6c2.9-4,6.6-7.6,10.4-10.6c0.2-0.1,0.4-0.2,0.7-0.3v-4.5h-7.5L-118,425L-118,425
						z"/>
				</g>
				<path id="XMLID_602_" class="st6" d="M-79.4,424.3h-23.3c-0.2,0.2-0.3,0.5-0.5,0.7h23.8V424.3z"/>
			</g>
		</g>
	</g>
	<g>
		<g id="XMLID_324_">
			<path id="XMLID_328_" class="st7" d="M81.6,423.3c-1.9-3.9-4-7.8-5.5-10.7c-0.1-0.1-0.2-0.2-0.3-0.2h-4.8c-0.1,0-0.3,0.1-0.3,0.2
				c-0.1,0.1-0.1,0.2,0,0.4c1.2,2,2,3.8,2.5,5c0,0.1,0,0.2-0.1,0.2c-5.1,0-10.6,0.3-18.4,0.3c4.1-2.8,6.8-6.3,9.4-10.6
				c0.1-0.1,0.1-0.2,0-0.4c-0.1-0.1-0.2-0.2-0.3-0.2H57c-0.1,0-0.3,0.1-0.3,0.2c-2.3,4-7.7,8.5-10.5,11c-0.1,0.1-0.1,0.2-0.1,0.3
				v3.8c0,0.2,0.2,0.4,0.4,0.4h3.8c9.5,0,9.6-0.3,24-0.3c0.2,0,0.5,0.1,0.6,0.4c0.2,0.4,0.2,0.3,0.3,0.5c0.1,0.1,0.2,0.3,0.4,0.2
				h5.6c0,0,0,0,0,0c0.2,0,0.4-0.2,0.4-0.4C81.6,423.4,81.6,423.4,81.6,423.3z"/>
			<path id="XMLID_325_" class="st7" d="M79.3,425.2H48.6c-0.2,0-0.4,0.1-0.4,0.3V440c0,0.2,0.2,0.3,0.4,0.3h24.7c0.1,0,0.2,0,0.4,0
				c2.1,0,3.7-0.5,4.7-1.4c0.9-0.8,1.4-2.1,1.3-3.7v-9.8C79.7,425.4,79.5,425.2,79.3,425.2z M73.5,433.8c0,0.8-0.1,1.3-0.5,1.7
				c-0.3,0.3-0.7,0.4-1.4,0.4c-0.1,0-0.2,0-0.3,0H54.7v-6.2h18.8L73.5,433.8z"/>
		</g>
		<g id="XMLID_314_">
			<path id="XMLID_316_" class="st7" d="M-27,413.2H2.6c0.6,0,1-0.5,1-1v-2.7c0-0.6-0.5-1-1-1H-27c-0.6,0-1,0.5-1,1v2.7
				C-28,412.7-27.6,413.2-27,413.2z"/>
			<path id="XMLID_315_" class="st7" d="M4.7,417.9h-33.7c-0.6,0-1,0.5-1,1v2.7c0,0.6,0.5,1,1,1h5.5l-4.9,13.5
				c-0.1,0.2-0.8,1.7,0,2.9c0.5,0.8,1.6,1.3,3.1,1.3h25.2c1.7,0,3-0.5,3.7-1.4c0.6-0.8,0.8-1.8,0.6-3.1l-2.2-7.6
				c-0.2-0.6-0.5-0.8-0.8-0.9l-0.1,0h-3.9H-3h-1.8c-0.8,0-1,0.5-1,0.9v0.8c0,0.6,0.5,1,1,1c0,0,0.1,0,0.1,0h0.8
				c0.5,1.7,1.6,5.3,1.6,5.3h-18.8c-0.4,0-0.4-0.2-0.3-0.4l4.3-12.3H4.7c0.6,0,1-0.5,1-1V419C5.7,418.4,5.2,417.9,4.7,417.9z"/>
		</g>
		<g id="XMLID_309_">
			<path id="XMLID_312_" class="st7" d="M43.1,424.8H28.9v-12.3h12.8c0.6,0,1-0.4,1-1V409c0-0.6-0.5-1-1-1H10.2c-0.6,0-1,0.4-1,1
				v2.5c0,0.5,0.5,1,1,1H23v12.3H8.6c-0.6,0-1.1,0.4-1.1,1v2.5c0,0.5,0.5,1,1.1,1H23v10.7c0,0.6,0.4,1.1,1,1.1h3.9
				c0.5,0,1-0.5,1-1.1v-10.7h14.3c0.6,0,1.1-0.4,1.1-1v-2.5C44.3,425.3,43.8,424.8,43.1,424.8z"/>
			<path id="XMLID_311_" class="st7" d="M35,414.1c-0.2,0-0.3,0.1-0.4,0.3c-0.3,2.8-1.2,5.6-2.5,8.4c-0.1,0.1,0,0.2,0,0.3
				c0.1,0.1,0.2,0.2,0.3,0.2h5.2c0.1,0,0.3-0.1,0.3-0.2c1.4-2.5,1.9-5.4,2.5-8.6c0-0.1,0-0.2-0.1-0.3c-0.1-0.1-0.2-0.1-0.3-0.1H35z"
				/>
			<path id="XMLID_310_" class="st7" d="M20.5,423.4C20.5,423.4,20.5,423.4,20.5,423.4c0.2,0,0.4-0.2,0.4-0.4c0-0.1,0-0.2-0.1-0.2
				c-1.3-2.8-2.1-5.6-2.5-8.3c0-0.2-0.2-0.3-0.4-0.3h-5.3c-0.1,0-0.2,0-0.3,0.1c-0.1,0.1-0.1,0.2-0.1,0.3c0.5,2.8,1.1,5.7,2.7,8.6
				c0.1,0.1,0.2,0.2,0.3,0.2H20.5z"/>
		</g>
	</g>
</g>
</svg>
