<?xml version="1.0" standalone="no"?>
<!DOCTYPE svg PUBLIC "-//W3C//DTD SVG 1.1//EN" "http://www.w3.org/Graphics/SVG/1.1/DTD/svg11.dtd" >
<!--
2013-9-30: Created.
-->
<svg>
<metadata>
Created by iconfont
</metadata>
<defs>

<font id="iconfont" horiz-adv-x="1024" >
  <font-face
    font-family="iconfont"
    font-weight="500"
    font-stretch="normal"
    units-per-em="1024"
    ascent="896"
    descent="-128"
  />
    <missing-glyph />
    
    <glyph glyph-name="tubiao-gongshi" unicode="&#58885;" d="M405.565 782.961c40.419 27.713 89.963 42.75 139.015 39.323 27.626-2.085 55.867-13.039 73.85-34.811 12.148-14.82 15.291-37.277 4.806-53.841-12.324-19.501-32.882-31.345-51.932-43.337-5.933 2.144-11.659 4.778-17.395 7.38-4.043 14.538-9.339 29.445-20.029 40.498-17.895 16.475-46.42 16.475-66.909 4.925-21.878-11.483-36.377-32.716-47.967-53.85-32.999-64.119-41.887-136.628-56.876-206.257 52.783 0.03 105.577 0.049 158.369-0.011 36.915 1.791 74.241 2.301 110.548 10.524 4.063-5.668 9.241-10.494 12.863-16.485-11.13-25.207-28.202-52.538-56.718-59.733-29.603-6.881-60.115-5.873-90.187-7.724-49.856 0.068-99.723 0.011-149.578 0.03-21.057-104.108-41.692-208.314-62.591-312.46-6.539-32.892-13.793-65.881-15.242-99.468-2.114-18.071-0.235-37.326 8.85-53.42-3.691-6.343-2.887-17.591-11.865-18.814-22.123-6.49-44.785-13.606-68.113-12.012-11.395 1.478-22.877 6.676-29.543 16.378-8.684 13.186-9.603 29.671-8.361 44.951 3.887 47.694 14.791 94.457 23.915 141.346 19.343 97.882 39.636 195.598 58.196 293.607-32.814-1.449-65.881-9.917-93.33-28.477-6.49 2.996-12.373 7.909-18.463 11.894 5.962 26.694 11.884 56.982 34.839 74.662 27.488 16.436 61.388 13.724 91.685 15.926 12.96 61.955 23.328 125.575 50.609 183.361 20.4 47.105 54.868 87.505 97.549 115.894zM867.281 336.919c13.94 14.614 39.822 16.847 54.301 1.918 13.557-15.212 10.524-39.773-3.867-53.341-41.887-40.909-82.111-83.344-121.562-126.496 47.702-53.625 90.599-111.578 128.257-172.691 8.35-15.849 4.591-37.934-10.357-48.583-12.755-8.761-30.611-6.783-42.533 2.545-8.966 5.786-12.511 16.25-18.57 24.512-30.67 49.004-66.752 94.338-103.735 138.644-39.244-47.243-74.75-97.5-108.729-148.629-7.646-10.181-19.588-18.374-32.852-17.102-17.846-1.371-33.097 15.056-33.351 32.353-0.901 12.481 5.522 23.797 12.393 33.685 33.283 52.236 70.384 101.945 109.404 150.01 2.076 2.105 5.325 4.954 2.065 7.655-36.934 40.635-75.974 79.371-113.936 119.086-14.058 12.53-18.032 36.18-5.012 50.826 14.263 15.731 41.213 14.948 55.622-0.244 37.796-39.069 76.591-77.207 113.232-117.343 38.334 42.338 77.58 84.031 119.232 123.197z"  horiz-adv-x="1024" />

    
    <glyph glyph-name="tubiao" unicode="&#59102;" d="M256 428l0-384L256 428M320 492 192 492l0-512 128 0L320 492 320 492zM512 556l0-512L512 556M576 620 448 620l0-640 128 0L576 620 576 620zM768 300l0-256L768 300M832 364l-128 0 0-384 128 0L832 364 832 364z"  horiz-adv-x="1024" />

    
    <glyph glyph-name="huoche" unicode="&#58922;" d="M281.260825 90.102503m-117.944226 0a115.258 115.258 0 1 0 235.888452 0 115.258 115.258 0 1 0-235.888452 0ZM645.440152 90.102503m-117.944226 0a115.258 115.258 0 1 0 235.888452 0 115.258 115.258 0 1 0-235.888452 0ZM645.440152 90.102503m-117.944226 0a115.258 115.258 0 1 0 235.888452 0 115.258 115.258 0 1 0-235.888452 0ZM775.800151 562.382872l-15.055904 0c-51.110051 0-92.542696-40.162722-92.542696-89.705068l0-241.782695c55.484685-8.911974 100.190887-49.685609 114.805746-103.043864l86.476537 0c51.111075 0 92.543719 40.160675 92.543719 89.703021L962.027553 345.116547C949.612803 541.690598 775.800151 562.382872 775.800151 562.382872zM722.541157 345.116547l0 80.378655c0 31.218002 26.107611 56.525388 58.314127 56.525388l9.486048 0c0 0 109.523439-13.039991 117.345592-136.90302L722.541157 345.11757zM577.715701 636.873424 133.790122 636.873424c-37.402865 0-67.724451-31.513738-67.724451-70.385047l0-368.253108c0-38.872333 30.321586-70.384024 67.724451-70.384024l5.636371 0c16.683984 62.812581 73.771167 109.165282 141.834332 109.165282 68.065212 0 125.152395-46.353724 141.836379-109.165282l84.776825 0c16.571421 60.502979 71.802326 105.027032 137.566122 105.027032L645.440152 566.488377C645.440152 605.360709 615.118566 636.873424 577.715701 636.873424z"  horiz-adv-x="1024" />

    
    <glyph glyph-name="yonghu" unicode="&#59028;" d="M914.855065-20.949874c0-22.309145-18.104178-39.907786-40.431744-40.413324-33.740024-0.76547-41.584042 40.918861-41.584042 40.918861-19.153118 156.568242-150.020815 278.370035-310.635404 283.480671-3.453824-0.144293-6.870807-0.505538-10.367612-0.505538-3.492712 0-6.868761 0.385805-10.323608 0.505538-160.571608-5.153617-291.400418-126.912429-310.574002-283.480671 0 0-4.407591-40.918861-41.380394-40.918861-22.309145 0-40.413324 18.104178-40.413324 40.413324 0 0 0.727606 14.162214 2.587042 18.830761 20.304392 141.480915 113.332505 259.33665 240.360573 314.032943-74.615904 51.058265-123.657136 136.813392-123.657136 234.035214 0 156.535495 126.869448 283.424387 283.381406 283.424387 156.533448 0 283.423363-126.907312 283.423363-283.424387 0-97.203402-49.020765-182.918617-123.598805-233.99735 128.223347-55.17727 221.935061-174.733822 241.050314-318.011749 1.030519-3.555136 1.759148-7.230005 1.759148-11.132059L914.855065-20.949874 914.855065-20.949874 914.855065-20.949874zM714.218075 545.852849c0 111.814869-90.604807 202.435026-202.440143 202.435026-111.795425 0-202.439119-90.619134-202.439119-202.435026 0-111.800542 90.642671-202.458563 202.439119-202.458563C623.613268 343.414753 714.218075 434.076868 714.218075 545.852849L714.218075 545.852849 714.218075 545.852849zM714.218075 545.852849"  horiz-adv-x="1024" />

    
    <glyph glyph-name="caigou" unicode="&#58889;" d="M889.757576 511.983883 848.539826 511.983883c1.288343-4.207835 1.9934-8.610098 2.055822-13.107529 0.173962-12.474103-4.541433-24.155143-13.278421-32.892131-8.566096-8.566096-20.015869-13.282514-32.241308-13.282514-12.565177 0-24.426319 4.940522-33.398668 13.911848l-45.369304 45.369304L302.59062 511.98286l-45.369304-45.369304c-8.972349-8.971325-20.832468-13.911848-33.398668-13.911848-12.225439 0-23.675212 4.716418-32.241308 13.282514-8.736988 8.736988-13.452383 20.418029-13.278421 32.892131 0.062422 4.496407 0.76748 8.898671 2.055822 13.107529l-45.7643 0c-38.570457 0-69.837578-31.267121-69.837578-69.837578 0-37.043684 28.845978-67.333548 65.298192-69.674872 8.452509-78.949097 36.477796-225.079268 51.883671-301.517171 14.635325-72.615854 62.995753-133.907803 140.705626-133.907803l378.709251 0c77.709873 0 126.676098 61.181431 140.705626 133.907803 14.702863 76.215846 43.391253 222.525096 51.879578 301.489542 36.622082 2.164293 65.655326 32.537044 65.655326 69.701478C959.595154 480.716762 928.328034 511.983883 889.757576 511.983883zM368.608196 78.380394c0-25.006534-20.271696-45.279253-45.279253-45.279253s-45.279253 20.271696-45.279253 45.279253L278.04969 327.030497c0 25.006534 20.271696 45.279253 45.279253 45.279253s45.279253-20.271696 45.279253-45.279253L368.608196 78.380394zM557.398979 79.91433c0-25.006534-20.271696-45.279253-45.279253-45.279253s-45.279253 20.271696-45.279253 45.279253L466.840474 328.565457c0 20.959358 14.244422 38.584784 33.577746 43.744293l23.401989 0c19.333324-5.158487 33.577746-22.784936 33.577746-43.744293L557.397956 79.91433zM752.329601 79.91433c0-25.006534-20.271696-45.279253-45.279253-45.279253s-45.279253 20.271696-45.279253 45.279253L661.771095 328.565457c0 20.959358 14.244422 38.584784 33.577746 43.744293l23.401989 0c19.333324-5.158487 33.577746-22.784936 33.577746-43.744293L752.328577 79.91433zM827.570235 521.042189 538.513864 810.097538c-0.134053 0.134053-0.274246 0.258896-0.410346 0.38988-0.12382 0.128937-0.2415 0.260943-0.36839 0.387833-12.287861 12.287861-32.497135 12.001335-45.138036-0.639566L203.412806 521.052422c-12.640901-12.640901-12.927427-32.850176-0.639566-45.138036 12.287861-12.287861 32.497135-12.001335 45.138036 0.639566l267.575128 267.575128L783.071765 476.543719c12.635785-12.635785 32.839943-12.917194 45.127803-0.629333C840.48743 488.202247 840.20602 508.406404 827.570235 521.042189zM515.41068 759.212614c-12.715603 0-23.024389 10.308787-23.024389 23.024389 0 12.715603 10.308787 23.024389 23.024389 23.024389s23.024389-10.308787 23.024389-23.024389C538.435069 769.520377 528.126282 759.212614 515.41068 759.212614z"  horiz-adv-x="1024" />

    
    <glyph glyph-name="setting" unicode="&#59704;" d="M829.013333 342.18666700000006c1.706667 13.653333 2.986667 27.306667 2.986667 41.813333s-1.28 28.16-2.986667 41.813333l90.026667 70.4c8.106667 6.4 10.24 17.92 5.12 27.306667l-85.333333 147.626667c-5.12 9.386667-16.64 12.8-26.026667 9.386667l-106.24-42.666667c-22.186667 17.066667-46.08 31.146667-72.106667 41.813333l-16.213333 113.066667C616.96 802.986667 608 810.666667 597.333333 810.666667l-170.666667 0C416 810.666667 407.04 802.986667 405.76 792.746667L389.546667 679.6800000000001C363.52 669.013333 339.626667 654.506667 317.44 637.866667l-106.24 42.666667c-9.813333 3.84-20.906667 0-26.026667-9.386667l-85.333333-147.626667C94.293333 514.133333 96.853333 502.613333 104.96 496.213333l90.026667-70.4C193.28 412.16 192 398.08 192 384s1.28-28.16 2.986667-41.813333l-90.026667-70.4c-8.106667-6.4-10.24-17.92-5.12-27.306667l85.333333-147.626667c5.12-9.386667 16.64-12.8 26.026667-9.386667l106.24 42.666667c22.186667-17.066667 46.08-31.146667 72.106667-41.813333l16.213333-113.066667C407.04-34.98666700000001 416-42.66666699999996 426.666667-42.66666699999996l170.666667 0c10.666667 0 19.626667 7.68 20.906667 17.92l16.213333 113.066667c26.026667 10.666667 49.92 25.173333 72.106667 41.813333l106.24-42.666667c9.813333-3.84 20.906667 0 26.026667 9.386667l85.333333 147.626667c5.12 9.386667 2.986667 20.906667-5.12 27.306667L829.013333 342.18666700000006zM512 234.66666699999996c-82.346667 0-149.333333 66.986667-149.333333 149.333333s66.986667 149.333333 149.333333 149.333333 149.333333-66.986667 149.333333-149.333333S594.346667 234.66666699999996 512 234.66666699999996z"  horiz-adv-x="1024" />

    
    <glyph glyph-name="mima" unicode="&#58909;" d="M512.660032 304.992575c-14.528901 0-26.28669-11.770068-26.28669-26.28669l0-105.144712c0-14.516622 11.756765-26.28669 26.28669-26.28669s26.28669 11.770068 26.28669 26.28669l0 105.144712C538.946722 293.222507 527.189957 304.992575 512.660032 304.992575zM778.474051 515.281999l-16.095583 0 0 65.715701c0 137.694035-112.024399 249.718435-249.718435 249.718435S262.941598 718.691735 262.941598 580.9977l0-65.715701-16.068977 0c-85.352947 0-154.790412-69.437465-154.790412-154.790412l0-268.727371c0-85.340667 69.437465-154.778132 154.790412-154.778132L778.474051-63.013917c85.327364 0 154.764829 69.437465 154.764829 154.778132L933.23888 360.491587C933.23888 445.844533 863.801415 515.281999 778.474051 515.281999zM341.800643 580.9977c0 94.209662 76.650751 170.860413 170.860413 170.860413s170.860413-76.650751 170.860413-170.860413l0-65.715701L341.800643 515.281999 341.800643 580.9977zM854.380858 91.764216c0-41.86755-34.038234-75.919087-75.906807-75.919087L246.87262 15.845129c-41.86755 0-75.93239 34.051537-75.93239 75.919087L170.940231 360.491587c0 41.86755 34.063817 75.93239 75.93239 75.93239L778.474051 436.423977c41.86755 0 75.906807-34.063817 75.906807-75.93239L854.380858 91.764216z"  horiz-adv-x="1024" />

    
    <glyph glyph-name="editable" unicode="&#58989;" d="M791.419897 621.057067l-73.163323 73.163323c-12.672624 12.672624-32.258705 12.672624-44.934398 0l-57.607022-57.610092 121.55445-121.55445 54.150294 61.066821C804.095591 588.798363 804.095591 608.3813729999999 791.419897 621.057067zM225.12634 249.48128399999996l0-121.55445 121.55752 0 351.986633 355.447455L577.116043 604.927715 225.12634 249.48128399999996zM482.364029 189.21468800000002c-17.759479 0-32.155351-14.395872-32.155351-32.155351 0-17.759479 14.395872-32.155351 32.155351-32.155351 17.759479 0 32.155351 14.395872 32.155351 32.155351C514.51938 174.81881699999997 500.123508 189.21468800000002 482.364029 189.21468800000002zM610.985432 189.21468800000002c-17.759479 0-32.155351-14.395872-32.155351-32.155351 0-17.759479 14.395872-32.155351 32.155351-32.155351s32.155351 14.395872 32.155351 32.155351C643.141806 174.81881699999997 628.744911 189.21468800000002 610.985432 189.21468800000002zM739.607858 189.21468800000002c-17.759479 0-32.155351-14.395872-32.155351-32.155351 0-17.759479 14.395872-32.155351 32.155351-32.155351 17.759479 0 32.155351 14.395872 32.155351 32.155351C771.763209 174.81881699999997 757.367337 189.21468800000002 739.607858 189.21468800000002z"  horiz-adv-x="1024" />

    
    <glyph glyph-name="bell" unicode="&#58886;" d="M955.733333 71.67999999999995C952.2176 156.39893300000006 911.2576 231.52639999999997 849.578667 279.9616L849.578667 509.815467C849.578667 642.56 757.589333 754.244267 636.0064 780.629333L636.0064 785.885867C636.0064 846.4384 587.8784 896 529.066667 896L529.066667 896C470.254933 896 422.126933 846.4384 422.126933 785.885867L422.126933 780.629333C300.544 754.244267 208.554667 642.56 208.554667 509.815467L208.554667 279.9616C146.875733 231.52639999999997 105.915733 156.39893300000006 102.4 71.67999999999995L208.554667 71.67999999999995 208.554667 70.96320000000003 849.578667 70.96320000000003 849.578667 71.67999999999995 955.733333 71.67999999999995 955.733333 71.67999999999995 955.733333 71.67999999999995ZM506.504533-128L533.060267-128C602.624-128 660.48-73.83040000000005 668.8768-4.437332999999967L389.563733-4.437332999999967C397.960533-73.83040000000005 455.816533-128 525.380267-128L506.504533-128 506.504533-128Z"  horiz-adv-x="1024" />

    
    <glyph glyph-name="tubiao-xunjia" unicode="&#58953;" d="M521.149381 45.56194100000005c-78.390371 0.326435-148.651598 24.693402-210.850196 71.964008-10.773368 8.187473-16.813944 4.101411-24.323988-3.493567-27.945469-28.262694-56.168254-56.251142-84.263126-84.36648-8.467859-8.473999-17.882276-14.94027-30.600949-12.81384-11.165294 1.866511-18.075681 9.151427-21.912056 19.427468-4.677533 12.527314 0.338714 22.74298 8.858762 31.382754 27.007097 27.387767 53.723575 55.104015 81.708953 81.464383 13.047154 12.289907 15.239076 20.564361 3.399423 36.432771-154.475234 207.063963-43.050492 500.229932 209.617112 553.119513 194.042391 40.618093 387.366422-94.701872 415.471526-290.814412 28.080545-195.940624-104.728226-372.506992-301.06794-399.810848C552.019459 45.944658000000004 536.503067 46.33351400000004 521.149381 45.56194100000005zM225.077222 395.802814c-0.143263-165.608805 130.932028-297.464879 295.913547-297.673633 166.17674-0.210801 299.072493 131.674948 299.243385 296.969599 0.169869 164.355255-132.702348 297.964252-296.547996 298.194496C357.61584 693.525566 225.221508 561.6275370000001 225.077222 395.802814zM544.927947 416.483832c24.551162 7.682983 49.386804 15.521508 74.265424 23.221888 22.644743 7.008624 45.303812 13.975293 68.017116 20.757766 15.798824 4.717442 48.003294-12.988826 52.072983-28.754904 2.460028-9.529027-6.401804-8.200776-10.940167-9.452279-48.789193-13.44522-97.689926-26.486234-146.567123-39.61116-21.190625-5.690606-21.212114-5.677303-6.436596-20.550035 8.582469-8.638751 16.819061-17.678638 25.936719-25.714661 10.393721-9.160637 13.574157-16.639982 1.704828-28.057009-11.094686-10.67206-19.040658-12.586666-29.961382-0.35918-12.360516 13.84124-26.596751 26.000164-39.08518 39.737026-8.573259 9.43079-15.386432 9.69685-23.260773-0.144286-3.183506-3.978614-6.962575-7.562233-10.851139-10.879792-8.765641-7.479345-8.722662-14.159488-0.166799-22.231327 14.910595-14.069437 28.611641-29.438473 43.74327-43.25106 12.860912-11.739369 3.470031-18.241456-3.90903-26.507724-8.193613-9.178033-15.018042-12.354376-24.88783-1.456165-13.750165 15.182794-29.079292 28.92375-43.236733 43.75555-7.271614 7.618515-13.099343 8.541537-20.554128 0.248663-8.55791-9.518794-18.788925-17.588587-26.910906-27.428699-11.18576-13.550621-20.665669-12.397355-30.744211 0.697895-2.714831 3.527336-6.065136 6.639211-9.455349 9.556657-8.387018 7.216355-7.18054 13.638625 0.420579 20.793582 10.729365 10.097986 20.594037 21.12104 31.411407 31.116695 8.106632 7.490601 7.363711 13.353123-0.301875 20.644179-14.390755 13.68979-27.693736 28.54615-42.36897 41.906435-11.949146 10.878768-4.261047 17.259082 3.390213 24.848944 7.697309 7.634888 14.297634 14.987343 25.090445 3.316535 13.039991-14.101159 27.710109-26.697035 40.73168-40.813544 8.350179-9.052167 14.018272-9.708106 23.175839-0.480954 22.243607 22.413476 22.738887 21.971407 0.775666 43.869137-10.892071 10.860349-21.581528 21.951965-32.94125 32.304753-10.126638 9.229199-4.41045 15.655562 2.90926 21.902846 7.105838 6.064113 12.731976 18.674315 24.800849 6.526647 10.840906-10.912537 22.018479-21.49864 32.627095-32.629141 9.117658-9.56689 12.866029-6.92062 15.817244 4.891404 12.111852 48.475038 24.732288 96.822163 37.288255 145.18566 5.884011 22.664186 7.297197 22.390963 24.665773 7.426133 14.891152-12.830213 19.165502-25.487487 12.492522-45.01524-14.075577-41.191144-25.552979-83.273589-37.894052-125.050064C544.603559 426.789549 541.410843 422.782282 544.927947 416.483832z"  horiz-adv-x="1024" />

    
    <glyph glyph-name="baoquancaiwu" unicode="&#59030;" d="M781.775 578.13H242.224c-19.835 0-35.914 16.08-35.914 35.914 0 19.835 16.079 35.914 35.914 35.914h539.551c19.834 0 35.914-16.079 35.914-35.914 0-19.834-16.079-35.914-35.914-35.914zM730.512 695.456H293.488c-19.834 0-35.914 16.079-35.914 35.913 0 19.835 16.08 35.914 35.914 35.914h437.024c19.833 0 35.914-16.079 35.914-35.914 0-19.834-16.08-35.913-35.914-35.913zM899.222 422.782c0 55.22-44.923 100.113-100.11 100.113H224.888c-55.204 0-100.111-44.907-100.111-100.112V100.83c0-55.205 44.907-100.112 100.11-100.112h574.224c55.188 0 100.112 44.907 100.112 100.112V422.782zM542.808 295.057l70.63 0.064c18.132-0.019 32.854-13.62 32.888-30.345 0.042-16.718-14.603-30.251-32.753-30.215l-70.707-0.065 0.037-37.039 70.54 0.066c18.13-0.037 32.852-13.62 32.886-30.345 0.042-16.718-14.605-30.253-32.753-30.214l-70.634-0.066 0.04-36.706c-0.038-17.727-13.932-32.118-31.063-32.155-17.094-0.037-30.949 14.29-30.909 32.015l-0.04 36.78-70.483-0.056c-18.127 0.022-32.87 13.618-32.887 30.349-0.037 16.714 14.631 30.25 32.74 30.213l70.576 0.063-0.04 37.028-70.389-0.058c-18.127 0.04-32.87 13.622-32.887 30.348-0.037 16.718 14.631 30.251 32.74 30.214l70.48 0.074V308.67l-93.974 92.096c-12.878 12.534-12.878 32.866 0 45.406 12.895 12.534 33.79 12.534 46.686 0l78.459-76.919 78.502 76.921c12.877 12.535 33.773 12.535 46.652 0 12.89-12.54 12.89-32.872 0-45.406l-94.355-92.48 0.018-13.23z"  horiz-adv-x="1024" />

    
    <glyph glyph-name="help" unicode="&#59163;" d="M511.5 806.362c-233.24 0-422.318-189.078-422.318-422.319-0.047-233.241 188.992-422.357 422.232-422.405 233.242-0.043 422.358 188.996 422.405 422.233v0.215c0 233.198-189.12 422.276-422.319 422.276zM573.141 162.488c-1.179-39.082-29.721-66.395-69.629-66.395h-2.621c-40.218 1.188-68.604 30.859-67.423 70.514 1.13 38.978 30.188 67.317 69.067 67.317l2.365-0.106c41.348-1.177 69.426-30.548 68.241-71.33zM672.764 431.972c-9.465-13.37-30.246-30.138-56.471-50.555l-28.904-19.901c-15.834-12.342-25.407-24.016-28.953-35.382-2.883-8.95-4.219-11.37-4.475-29.622v-4.631h-110.313l0.311 9.36c1.387 38.263 2.311 60.891 18.207 79.559 24.938 29.21 79.969 64.697 82.285 66.188 13.060 9.62 23.132 22.597 29.021 37.669 2.039-1.771 7.133 10.775 7.133 23.014 0 17.176-5.043 33.072-15.073 47.109-9.667 13.674-28.028 20.465-54.567 20.465-26.324 0-44.376-8.327-55.123-25.503-11.108-17.538-16.714-36-16.714-54.878v-4.73h-113.714l0.213 4.936c2.933 69.583 27.822 119.726 73.797 148.991 28.952 18.561 65.006 27.973 107.021 27.973 54.924 0 101.408-13.369 137.926-39.705 37.080-26.689 55.854-66.695 55.854-118.847-0.052-29.16-9.262-56.57-27.461-81.51z"  horiz-adv-x="1024" />

    
    <glyph glyph-name="mendian-" unicode="&#58890;" d="M64.5 831.5v-895h895v895h-895z m619.6-68.8v-206.5H546.4V762.7h137.7z m-206.5 0v-206.5H339.9V762.7h137.7z m-344.3 0H271v-206.5H133.3V762.7zM753 5.3V349.6H271v-344.2H133.3V487.3h757.3v-481.9H753z m137.7 550.8H753V762.7h137.7v-206.6z"  horiz-adv-x="1024" />

    
    <glyph glyph-name="bars" unicode="&#58968;" d="M124 639.008q0 26.016 18.496 44.512t44.512 18.496 44.512-18.496 18.496-44.512-18.496-44.512T187.008 576t-44.512 18.496-18.496 44.512z m732-29.024H357.984q-15.008 0-25.504 10.496t-10.496 25.504q0 15.008 10.496 25.504t25.504 10.496H856q15.008 0 25.504-10.496t10.496-25.504q0-15.008-10.496-25.504t-25.504-10.496zM124 384q0 26.016 18.496 44.512t44.512 18.496 44.512-18.496T250.016 384t-18.496-44.512-44.512-18.496-44.512 18.496T124 384z m732-28.992H357.984q-15.008 0-25.504 10.496t-10.496 25.504q0 15.008 10.496 25.504t25.504 10.496H856q15.008 0 25.504-10.496t10.496-25.504q0-15.008-10.496-25.504t-25.504-10.496zM124 128.992q0 26.016 18.496 44.512T187.008 192t44.512-18.496 18.496-44.512-18.496-44.512-44.512-18.496-44.512 18.496-18.496 44.512z m732-28.992H357.984q-15.008 0-25.504 10.496t-10.496 25.504q0 15.008 10.496 25.504t25.504 10.496H856q15.008 0 25.504-10.496t10.496-25.504q0-15.008-10.496-25.504t-25.504-10.496z"  horiz-adv-x="1024" />

    
    <glyph glyph-name="kucun" unicode="&#59017;" d="M516.582 309.301c-103.607 0-207.213-0.038-310.82 0.04-16.065 0.012-31.439 3.221-44.599 13.065-16.409 12.274-25.669 28.674-25.784 49.378-0.232 41.779-0.599 83.567 0.132 125.335 0.432 24.69 10.648 44.722 33.702 56.387 8.018 4.057 16.796 5.737 25.667 6.496 7.15 0.612 14.353 0.835 21.532 0.837 202.163 0.042 404.326 0.041 606.489 0.007 8.409-0.001 16.797-0.596 25.118-1.967 25.685-4.233 39.683-20.514 46.052-44.64 1.41-5.343 2.04-10.786 2.033-16.341-0.053-42.238 0.009-84.477-0.041-126.715-0.039-32.511-24.676-58.698-57.222-61.195-7.031-0.539-14.047-0.687-21.081-0.687H516.583z m-0.456 104.854c14.23 0 28.46-0.02 42.69 0.01 5.378 0.011 10.589 1.077 14.055 5.491 6.007 7.651 6.62 16.4 3.115 25.161-3.153 7.878-10.357 9.333-17.883 9.347a26429.5 26429.5 0 0 1-84.004 0.01c-12.198-0.015-21.409-8.423-21.274-19.277 0.164-13.209 7.708-20.682 21.07-20.734 14.077-0.054 28.153-0.011 42.231-0.008zM513.829 4.165c-103.916 0-207.831-0.005-311.747 0.003-33.62 0.003-61.552 22.814-68.023 55.621-1.005 5.096-1.478 10.277-1.472 15.502 0.042 38.872-0.15 77.746 0.118 116.617 0.185 26.823 16.088 49.842 39.442 58.089 10.654 3.763 21.746 5.046 32.953 5.053 96.111 0.059 192.221 0.035 288.332 0.035 110.037 0 220.075 0.046 330.112-0.054 15.156-0.013 30.041-2.181 42.964-10.923 16.086-10.883 24.308-26.604 26.763-45.613 0.885-6.856 0.7-13.741 0.701-20.622 0.006-34.894-0.636-69.802 0.167-104.677 0.974-42.303-34.829-69.366-69.481-69.204-103.607 0.482-207.217 0.173-310.827 0.173z m-0.323 105.129v0.025c14.384 0 28.772-0.224 43.15 0.071 11.525 0.236 18.82 8.646 18.583 20.625-0.217 11.035-7.77 18.364-19.126 18.454-8.11 0.064-16.22 0.016-24.33 0.015-20.657-0.002-41.316 0.074-61.972-0.041-11.145-0.061-19.202-8.153-19.342-19.036-0.148-11.68 8.03-19.922 20.344-20.073 14.229-0.173 28.461-0.04 42.692-0.04zM512.874 625.074H220.459c-1.224 0-2.454-0.073-3.671 0.02-1.313 0.1-3.059-0.614-3.801 0.794-0.773 1.467 0.794 2.491 1.638 3.465 22.245 25.652 43.968 51.821 69.621 74.245 11.676 10.207 24.061 19.571 40.298 21.378a74.755 74.755 0 0 0 8.235 0.452c122.261 0.021 244.521 0.126 366.782-0.08 21.926-0.037 40.456-8.539 54.557-25.76 18.796-22.955 39.33-44.474 56.714-68.595 0.536-0.745 1.09-1.478 1.642-2.21 1.699-2.256 1.469-3.636-1.676-3.679-1.53-0.02-3.06-0.029-4.591-0.029-97.777-0.002-195.555-0.002-293.333-0.002z"  horiz-adv-x="1024" />

    
    <glyph glyph-name="chakan" unicode="&#59026;" d="M620.864252-54.975406H172.032532a98.879938 98.879938 0 0 0-99.071938 99.199938V722.560108a99.455938 99.455938 0 0 0 99.071938 99.199938h678.399576a98.943938 98.943938 0 0 0 99.263938-99.199938l-1.599999-448.639719v-0.192a36.671977 36.671977 0 0 1 73.151955-0.064l1.471999 448.70372v0.191999A172.159892 172.159892 0 0 1 850.560108 894.720001H172.032532A171.903893 171.903893 0 0 1 0.00064 722.688108V44.160532a171.519893 171.519893 0 0 1 50.367969-121.791923A171.519893 171.519893 0 0 1 172.160532-127.99936h448.83172a36.479977 36.479977 0 1 1-0.128 73.023954M1012.160007-65.727399l-139.455912 139.327913A219.519863 219.519863 0 0 1 538.880303 356.032337a219.519863 219.519863 0 0 1 282.367824-333.951791l139.327913-139.391913a36.607977 36.607977 0 0 1 51.647967 51.583968z m-318.015801 120.255925a146.239909 146.239909 0 1 0 0.064 292.479817 146.239909 146.239909 0 0 0 0-292.479817z m109.631932 511.16768a36.607977 36.607977 0 0 1 0 73.215955l-584.511635 0.192a36.607977 36.607977 0 0 1 0-73.151955l584.511635-0.256z m-365.311772-218.879863a36.351977 36.351977 0 0 1 31.55198 54.719966 36.479977 36.479977 0 0 1-31.55198 18.239989H219.264503a36.479977 36.479977 0 0 1 0-72.895955l219.199863-0.064z m-219.135863-146.047908a36.479977 36.479977 0 0 1 0-72.959955H365.440412a36.607977 36.607977 0 0 1 31.87198 18.047989 36.607977 36.607977 0 0 1-31.87198 54.911966H219.328503z"  horiz-adv-x="1024" />

    
    <glyph glyph-name="chuli" unicode="&#58903;" d="M881.547 403.496v-323.778c0-42.056-34.138-76.214-76.147-76.214H196.467c-42.013 0-76.146 34.158-76.146 76.214V689.489c0 42.057 34.133 76.169 76.146 76.169H522.89c20.657 0 37.786 17.147 37.786 37.828-0.073 20.82-16.987 37.735-37.853 37.829H196.467C112.327 841.221 44.174 773 44.198 688.884v-609.769c-0.024-84.117 68.128-152.385 152.269-152.431H805.4c84.14 0.046 152.293 68.313 152.269 152.431V403.496c-0.07 20.82-16.916 37.735-37.782 37.828-20.61 0.558-37.761-15.662-38.339-36.295-0.024-0.511-0.024-0.977 0-1.487v-0.046zM978.069 824.724c-5.297 10.504-16.964 16.545-31.95 16.545H720.47c-22.469 0-47.75-14.407-58.74-33.229L506.532 540.82c-7.039-12.129-7.457-24.955-1.205-35.086 6.25-10.178 17.937-15.94 32.229-15.94h37.734l-0.23-0.605c-0.187-0.556-0.421-1.161-0.607-1.763l-62.459-220.795c-2.066-5.204-6.458-17.938 1.048-28.301 4.229-5.765 10.873-9.063 18.402-9.063 7.296 0 14.523 3.067 22.701 9.621a6.75 6.75 0 0 1 0.698 0.603L899.045 545.47c16.936 13.802 14.244 27.186 12.336 32.346-1.998 5.112-8.946 17.147-31.508 17.147h-68.479l160.308 195.326c9.435 11.246 11.711 23.84 6.367 34.435M773.66 609.417c-8.506-10.456-10.573-21.842-5.671-31.462 4.833-9.621 15.431-15.058 29.045-15.058h51.795L578.124 322.306l47.17 166.883c4.114 11.016 2.952 22.262-3.275 30.953-6.414 8.876-17.174 13.896-29.626 13.896h-30.068L701.673 773.93c3.809 6.551 15.196 13.012 22.911 13.012H919.49L773.66 609.417z"  horiz-adv-x="1024" />

    
    <glyph glyph-name="tubiao-shaixuan" unicode="&#58880;" d="M973.604234 863.547077c-9.216 13.705846-23.000615 32.059077-41.353846 32.059077H41.764234C27.979618 895.606154 9.626388 877.252923 5.057772 863.547077c-9.216-13.784615-4.647385-36.785231 4.568616-50.569846l312.162461-344.221539v-381.006769c0-13.784615 9.137231-32.137846 27.569231-36.706461l234.023385-105.55077c4.647385-4.647385 13.784615-4.647385 18.35323-4.647384 9.216 0 18.432 0 23.000616 4.568615 13.784615 9.216 22.921846 18.353231 22.921846 36.706462l13.784615 491.204923 302.946462 344.221538c13.784615 9.216 13.784615 27.569231 9.216 46.001231zM560.459618 46.395077000000015L413.555003 115.23938499999997v321.378461h160.689231l-13.784616-390.222769z m36.706462 486.636308c-4.568615 0-4.568615-4.647385-9.137231-4.647385H390.633157L142.746388 803.84h693.16923l-238.670769-270.808615zM1102.155618 216.221538a39.463385 39.463385 0 0 1-36.78523 36.785231h-293.809231a39.463385 39.463385 0 0 1-36.706462-36.706461v-18.432c0-18.353231 18.432-36.706462 36.785231-36.706462h293.809231a39.463385 39.463385 0 0 1 36.706461 36.706462v18.432zM1102.155618 399.911385a39.463385 39.463385 0 0 1-36.78523 36.706461h-293.809231a39.463385 39.463385 0 0 1-36.706462-36.706461v-18.432c0-18.353231 18.432-36.706462 36.785231-36.706462h293.809231a39.463385 39.463385 0 0 1 36.706461 36.706462v18.432zM1102.155618 32.68923099999995a39.463385 39.463385 0 0 1-36.78523 36.706461h-293.809231a39.463385 39.463385 0 0 1-36.706462-36.78523v-18.353231c0-18.353231 18.432-36.706462 36.785231-36.706462h293.809231a39.463385 39.463385 0 0 1 36.706461 36.706462v18.353231z"  horiz-adv-x="1102" />

    
    <glyph glyph-name="add" unicode="&#59099;" d="M554.666667 597.333333h-85.333334v-170.666666H298.666667v-85.333334h170.666666v-170.666666h85.333334v170.666666h170.666666v85.333334h-170.666666V597.333333z m-42.666667 213.333334C276.48 810.666667 85.333333 619.52 85.333333 384s191.146667-426.666667 426.666667-426.666667 426.666667 191.146667 426.666667 426.666667S747.52 810.666667 512 810.666667z m0-768c-188.16 0-341.333333 153.173333-341.333333 341.333333s153.173333 341.333333 341.333333 341.333333 341.333333-153.173333 341.333333-341.333333-153.173333-341.333333-341.333333-341.333333z"  horiz-adv-x="1024" />

    
    <glyph glyph-name="tubiao-guanbi-xiao" unicode="&#59049;" d="M512 444.342857L210.285714 746.057143a42.642286 42.642286 0 1 1-60.342857-60.342857L451.657143 384 149.942857 82.285714a42.642286 42.642286 0 0 1 60.342857-60.342857L512 323.657143l301.714286-301.714286a42.642286 42.642286 0 1 1 60.342857 60.342857L572.342857 384l301.714286 301.714286a42.642286 42.642286 0 0 1-60.342857 60.342857L512 444.342857z"  horiz-adv-x="1024" />

    
    <glyph glyph-name="tubiao-riqi" unicode="&#59050;" d="M146.285714 530.285714h731.428572V654.628571a21.942857 21.942857 0 0 1-21.942857 21.942858H804.571429V749.714286h73.142857a73.142857 73.142857 0 0 0 73.142857-73.142857v-658.285715a73.142857 73.142857 0 0 0-73.142857-73.142857H146.285714a73.142857 73.142857 0 0 0-73.142857 73.142857V676.571429a73.142857 73.142857 0 0 0 73.142857 73.142857h73.142857v-73.142857h-51.2a21.942857 21.942857 0 0 1-21.942857-21.942858V530.285714z m0-73.142857v-416.914286a21.942857 21.942857 0 0 1 21.942857-21.942857h687.542858a21.942857 21.942857 0 0 1 21.942857 21.942857V457.142857H146.285714z m438.857143 292.571429v-73.142857H438.857143V749.714286h146.285714zM329.142857 822.857143a36.571429 36.571429 0 0 0 36.571429-36.571429v-146.285714a36.571429 36.571429 0 0 0-73.142857 0v146.285714a36.571429 36.571429 0 0 0 36.571428 36.571429z m365.714286 0a36.571429 36.571429 0 0 0 36.571428-36.571429v-146.285714a36.571429 36.571429 0 0 0-73.142857 0v146.285714a36.571429 36.571429 0 0 0 36.571429 36.571429zM292.571429 310.857143a36.571429 36.571429 0 1 0 0 73.142857 36.571429 36.571429 0 0 0 0-73.142857z m219.428571 0a36.571429 36.571429 0 1 0 0 73.142857 36.571429 36.571429 0 0 0 0-73.142857z m219.428571 0a36.571429 36.571429 0 1 0 0 73.142857 36.571429 36.571429 0 0 0 0-73.142857z m-438.857142-146.285714a36.571429 36.571429 0 1 0 0 73.142857 36.571429 36.571429 0 0 0 0-73.142857z m219.428571 0a36.571429 36.571429 0 1 0 0 73.142857 36.571429 36.571429 0 0 0 0-73.142857z"  horiz-adv-x="1024" />

    
    <glyph glyph-name="tubiao-xiaosanjiao-xia" unicode="&#59051;" d="M530.285714 191.926857l251.611429 377.417143A21.942857 21.942857 0 0 1 763.611429 603.428571H260.388571a21.942857 21.942857 0 0 1-18.285714-34.084571l251.611429-377.417143a21.942857 21.942857 0 0 1 36.571428 0z"  horiz-adv-x="1024" />

    
    <glyph glyph-name="tubiao-xiaosanjiao-shang" unicode="&#59052;" d="M530.285714 576.073143l251.611429-377.417143a21.942857 21.942857 0 0 0-18.285714-34.084571H260.388571a21.942857 21.942857 0 0 0-18.285714 34.084571l251.611429 377.417143a21.942857 21.942857 0 0 0 36.571428 0z"  horiz-adv-x="1024" />

    
    <glyph glyph-name="tubiao-quxiaoshenhe" unicode="&#59053;" d="M483.181714 381.805714c8.996571-8.192 23.478857-1.901714 23.478857 10.020572V808.96a13.897143 13.897143 0 0 1-23.405714 10.166857l-229.302857-208.457143a13.824 13.824 0 0 1 0-20.333714l229.229714-208.603429zM585.142857 640h73.142857a292.571429 292.571429 0 0 0 292.571429-292.571429V237.714286a292.571429 292.571429 0 0 0-292.571429-292.571429H365.714286a292.571429 292.571429 0 0 0-292.571429 292.571429V310.857143a36.571429 36.571429 0 0 0 73.142857 0v-73.142857a219.428571 219.428571 0 0 1 219.428572-219.428572h292.571428a219.428571 219.428571 0 0 1 219.428572 219.428572V347.428571a219.428571 219.428571 0 0 1-219.428572 219.428572H585.142857a36.571429 36.571429 0 0 0 0 73.142857z"  horiz-adv-x="1024" />

    
    <glyph glyph-name="import" unicode="&#59056;" d="M548.571429 286.28114300000004l144.969142 144.969143a36.571429 36.571429 0 0 0 51.712-51.712L546.669714 181.02857100000006a36.571429 36.571429 0 0 0-33.133714-19.017142 36.571429 36.571429 0 0 0-33.133714 19.017142L281.892571 379.53828599999997a36.571429 36.571429 0 1 0 51.712 51.712L475.428571 289.426286V713.142857a36.571429 36.571429 0 0 0 73.142858 0v-426.861714zM950.857143 237.71428600000002v-219.428572a73.142857 73.142857 0 0 0-73.142857-73.142857H146.285714a73.142857 73.142857 0 0 0-73.142857 73.142857V237.71428600000002a36.571429 36.571429 0 0 0 73.142857 0v-197.485715a21.942857 21.942857 0 0 1 21.942857-21.942857h687.542858a21.942857 21.942857 0 0 1 21.942857 21.942857V237.71428600000002a36.571429 36.571429 0 1 0 73.142857 0z"  horiz-adv-x="1024" />

    
    <glyph glyph-name="qiyong" unicode="&#59057;" d="M512-128A512 512 0 1 0 512 896a512 512 0 0 0 0-1024z m0 73.142857A438.857143 438.857143 0 1 1 512 822.857143a438.857143 438.857143 0 0 1 0-877.714286zM686.372571 369.225143L437.174857 205.01942899999995A24.137143 24.137143 0 0 0 406.674286 208.45714299999997a17.042286 17.042286 0 0 0-4.461715 11.337143v328.411428c0 10.24 9.728 18.651429 21.723429 18.651429 4.754286 0 9.362286-1.316571 13.165714-3.876572l249.197715-164.205714c9.508571-6.217143 11.264-17.92 4.022857-26.112a20.48 20.48 0 0 0-4.022857-3.437714z"  horiz-adv-x="1024" />

    
    <glyph glyph-name="tubiao-xuanpin" unicode="&#59058;" d="M146.285714 822.857143h219.428572a73.142857 73.142857 0 0 0 73.142857-73.142857v-219.428572a73.142857 73.142857 0 0 0-73.142857-73.142857H146.285714a73.142857 73.142857 0 0 0-73.142857 73.142857V749.714286a73.142857 73.142857 0 0 0 73.142857 73.142857z m21.942857-73.142857a21.942857 21.942857 0 0 1-21.942857-21.942857v-175.542858a21.942857 21.942857 0 0 1 21.942857-21.942857h175.542858a21.942857 21.942857 0 0 1 21.942857 21.942857V727.771429a21.942857 21.942857 0 0 1-21.942857 21.942857H168.228571zM585.142857 822.857143h219.428572a73.142857 73.142857 0 0 0 73.142857-73.142857v-219.428572a73.142857 73.142857 0 0 0-73.142857-73.142857H585.142857a73.142857 73.142857 0 0 0-73.142857 73.142857V749.714286a73.142857 73.142857 0 0 0 73.142857 73.142857z m21.942857-73.142857a21.942857 21.942857 0 0 1-21.942857-21.942857v-175.542858a21.942857 21.942857 0 0 1 21.942857-21.942857h175.542857a21.942857 21.942857 0 0 1 21.942858 21.942857V727.771429a21.942857 21.942857 0 0 1-21.942858 21.942857H607.085714zM146.285714 384h219.428572a73.142857 73.142857 0 0 0 73.142857-73.142857v-219.428572a73.142857 73.142857 0 0 0-73.142857-73.142857H146.285714a73.142857 73.142857 0 0 0-73.142857 73.142857V310.857143a73.142857 73.142857 0 0 0 73.142857 73.142857z m21.942857-73.142857a21.942857 21.942857 0 0 1-21.942857-21.942857v-175.542857a21.942857 21.942857 0 0 1 21.942857-21.942858h175.542858a21.942857 21.942857 0 0 1 21.942857 21.942858V288.914286a21.942857 21.942857 0 0 1-21.942857 21.942857H168.228571zM694.857143 91.428571a109.714286 109.714286 0 1 1 0 219.428572 109.714286 109.714286 0 0 1 0-219.428572z m152.576 8.850286l65.024-65.024a36.571429 36.571429 0 1 0-51.712-51.712l-65.097143 65.097143a182.857143 182.857143 0 1 0 51.712 51.712z"  horiz-adv-x="1024" />

    
    <glyph glyph-name="shanchu1" unicode="&#59059;" d="M292.571429 676.571429H109.714286a36.571429 36.571429 0 0 1 0-73.142858h804.571428a36.571429 36.571429 0 1 1 0 73.142858H731.428571h73.142858V749.714286a73.142857 73.142857 0 0 1-73.142858 73.142857H292.571429a73.142857 73.142857 0 0 1-73.142858-73.142857v-73.142857h73.142858v51.2a21.942857 21.942857 0 0 0 21.942857 21.942857h394.971428a21.942857 21.942857 0 0 0 21.942857-21.942857V676.571429z m0-548.571429v-87.771429a21.942857 21.942857 0 0 1 21.942857-21.942857h394.971428a21.942857 21.942857 0 0 1 21.942857 21.942857V493.714286a36.571429 36.571429 0 1 0 73.142858 0V18.285713999999984a73.142857 73.142857 0 0 0-73.142858-73.142857H292.571429a73.142857 73.142857 0 0 0-73.142858 73.142857V493.714286a36.571429 36.571429 0 0 0 73.142858 0v-365.714286zM438.857143 530.285714a36.571429 36.571429 0 0 0 36.571428-36.571428v-365.714286a36.571429 36.571429 0 1 0-73.142857 0v365.714286A36.571429 36.571429 0 0 0 438.857143 530.285714z m146.285714 0a36.571429 36.571429 0 0 0 36.571429-36.571428v-365.714286a36.571429 36.571429 0 1 0-73.142857 0v365.714286A36.571429 36.571429 0 0 0 585.142857 530.285714z"  horiz-adv-x="1024" />

    
    <glyph glyph-name="plus" unicode="&#59060;" d="M475.429 420.571h-365.714c-20.198-0-36.571-16.374-36.571-36.571 0-20.198 16.374-36.571 36.571-36.571h365.714v-365.714c0-0 0-0 0-0 0-20.198 16.374-36.571 36.571-36.571 20.198 0 36.571 16.374 36.571 36.571 0 0 0 0 0 0v365.714h365.714c0 0 0 0 0 0 20.198 0 36.571 16.374 36.571 36.571 0 20.198-16.374 36.571-36.571 36.571-0 0-0 0-0 0h-365.714v365.714c-0 20.198-16.374 36.571-36.571 36.571-20.198 0-36.571-16.374-36.571-36.571v-365.714z"  horiz-adv-x="1024" />

    
    <glyph glyph-name="tubiao-guanbi-xianxing" unicode="&#59061;" d="M717.166 589.824c-6.502 6.451-15.457 10.438-25.344 10.438-9.959 0-18.974-4.046-25.489-10.584l-154.332-154.698-154.331 154.697c-6.436 6.11-15.157 9.868-24.755 9.868-19.875 0-35.986-16.112-35.986-35.986 0-9.544 3.715-18.22 9.778-24.661l154.461-154.898-154.478-154.917c-6.046-6.423-9.761-15.099-9.761-24.643 0-19.875 16.112-35.986 35.986-35.986 9.598 0 18.319 3.758 24.771 9.883l154.316 154.682 154.331-154.843c6.48-6.588 15.49-10.67 25.453-10.67 9.927 0 18.908 4.053 25.378 10.594 6.564 6.523 10.624 15.553 10.624 25.53 0 9.905-4.002 18.875-10.476 25.382l-154.476 154.988 154.331 154.917c6.534 6.505 10.578 15.507 10.578 25.454 0 9.947-4.044 18.949-10.577 25.452zM512 896c-282.77 0-512-229.23-512-512s229.23-512 512-512c282.77 0 512 229.23 512 512 0 282.77-229.23 512-512 512zM823.077 72.923c-59.107-59.345-135.114-101.817-220.192-119.587 30.134 3.36-28.36-9.365-89.826-9.365-0.372 0-0.744 0-1.116 0.001-0.268-0.001-0.654-0.001-1.040-0.001-121.129 0-230.758 49.238-309.963 128.79-59.353 59.134-101.814 135.154-119.567 220.242 3.325-30.039-9.4 28.516-9.4 90.043 0 0.335 0 0.671 0.001 1.006-0.001 0.274-0.001 0.66-0.001 1.046 0 121.129 49.238 230.758 128.79 309.963 59.134 59.353 135.154 101.814 220.242 119.567-30.039-3.325 28.516 9.4 90.043 9.4 0.335 0 0.671-0 1.006-0.001 0.274 0.001 0.66 0.001 1.046 0.001 121.129 0 230.758-49.238 309.963-128.79 59.353-59.134 101.814-135.154 119.567-220.242-3.325 30.039 9.4-28.516 9.4-90.043 0-0.335-0-0.671-0.001-1.006 0.001-0.231 0.001-0.565 0.001-0.9 0-121.201-49.297-230.889-128.933-310.105z"  horiz-adv-x="1024" />

    
    <glyph glyph-name="tubiao-duigou-xianxing" unicode="&#59062;" d="M721.335 590.409l-327.534-328.558-85.431 149.577c-6.317 10.906-17.931 18.125-31.232 18.125-19.867 0-35.971-16.105-35.971-35.971 0-6.566 1.759-12.721 4.832-18.019l108.671-190.365c6.331-10.936 17.976-18.176 31.312-18.176 10.565 0 20.069 4.544 26.664 11.784l359.523 360.623c6.536 6.518 10.58 15.532 10.58 25.49 0 19.881-16.116 35.997-35.997 35.997-9.922 0-18.907-4.014-25.418-10.508zM512 896c-282.77 0-512-229.23-512-512s229.23-512 512-512c282.77 0 512 229.23 512 512 0 282.77-229.23 512-512 512zM823.077 72.923c-59.107-59.345-135.114-101.817-220.192-119.587 30.134 3.36-28.36-9.365-89.826-9.365-0.372 0-0.744 0-1.116 0.001-0.268-0.001-0.654-0.001-1.040-0.001-121.129 0-230.758 49.238-309.963 128.79-59.353 59.134-101.814 135.154-119.567 220.242 3.325-30.039-9.4 28.516-9.4 90.043 0 0.335 0 0.671 0.001 1.006-0.001 0.274-0.001 0.66-0.001 1.046 0 121.129 49.238 230.758 128.79 309.963 59.134 59.353 135.154 101.814 220.242 119.567-30.039-3.325 28.516 9.4 90.043 9.4 0.335 0 0.671-0 1.006-0.001 0.274 0.001 0.66 0.001 1.046 0.001 121.129 0 230.758-49.238 309.963-128.79 59.353-59.134 101.814-135.154 119.567-220.242-3.325 30.039 9.4-28.516 9.4-90.043 0-0.335-0-0.671-0.001-1.006 0.001-0.231 0.001-0.565 0.001-0.9 0-121.201-49.297-230.889-128.933-310.105z"  horiz-adv-x="1024" />

    
    <glyph glyph-name="tubiao-danchuangguanbi" unicode="&#59063;" d="M512 485.824L206.528 791.296a72 72 0 0 1-101.824-101.824L410.176 384l-305.472-305.472a72 72 0 0 1 101.824-101.824L512 282.176l305.472-305.472a72 72 0 0 1 101.824 101.824L613.824 384l305.472 305.472a72 72 0 1 1-101.824 101.824L512 485.824z"  horiz-adv-x="1024" />

    
    <glyph glyph-name="tubiao-shibai" unicode="&#59064;" d="M512 896a512 512 0 0 1-512-512 512 512 0 0 1 512-512 512 512 0 0 1 512 512 512 512 0 0 1-512 512z m241.005714-703.268571a32.182857 32.182857 0 0 0 0.512-45.348572 32.182857 32.182857 0 0 0-45.348571-0.512L512 339.236571 315.830857 147.017143a31.963429 31.963429 0 1 0-44.836571 45.787428L466.285714 384l-195.291428 191.268571a32.182857 32.182857 0 0 0-0.512 45.348572 32.182857 32.182857 0 0 0 45.348571 0.512L512 428.763429 708.169143 620.982857a31.963429 31.963429 0 1 0 44.836571-45.787428L557.714286 384l195.291428-191.268571z"  horiz-adv-x="1024" />

    
    <glyph glyph-name="tubiao-tongzhi" unicode="&#59065;" d="M512 896a512 512 0 0 1-512-512 512 512 0 0 1 512-512 512 512 0 0 1 512 512 512 512 0 0 1-512 512z m0-192a31.963429 31.963429 0 1 0 0-63.926857 31.963429 31.963429 0 0 0 0 63.926857z m95.524571-640H416.475429a31.963429 31.963429 0 1 0 0 64h62.025142V450.56h-62.976a31.963429 31.963429 0 1 0 0 63.926857h94.939429c17.700571 0 32.036571-14.262857 32.036571-31.963428V128h65.024c17.700571 0 32.914286-14.336 32.914286-32.036571 0-17.627429-15.213714-31.963429-32.914286-31.963429z"  horiz-adv-x="1024" />

    
    <glyph glyph-name="tubiao-zhengque" unicode="&#59066;" d="M512 896a512 512 0 1 1 0-1024A512 512 0 0 1 512 896z m309.467429-376.246857l-415.744-404.699429a32.109714 32.109714 0 0 0-45.348572 0L201.508571 266.898286a32.109714 32.109714 0 0 0 45.348572 45.348571l136.192-129.243428 393.142857 382.098285a32.109714 32.109714 0 0 0 45.348571-45.348571z"  horiz-adv-x="1024" />

    
    <glyph glyph-name="tubiao-jingshi" unicode="&#59067;" d="M512 896a512 512 0 0 1-512-512 512 512 0 0 1 512-512 512 512 0 0 1 512 512 512 512 0 0 1-512 512z m32.036571-800.036571a31.963429 31.963429 0 1 0-64 0 31.963429 31.963429 0 1 0 64 0z m0 128a31.963429 31.963429 0 1 0-64 0V672.109714a31.963429 31.963429 0 1 0 64 0v-448.073143z"  horiz-adv-x="1024" />

    
    <glyph glyph-name="tubiao-zhishiqixia" unicode="&#59068;" d="M512 245.028571L175.835429 581.339429a36.571429 36.571429 0 0 1-51.712-51.712l362.057142-362.057143a36.425143 36.425143 0 0 1 51.712 0l362.057143 362.057143a36.571429 36.571429 0 1 1-51.785143 51.712L512 245.028571z"  horiz-adv-x="1024" />

    
    <glyph glyph-name="tubiao-youfanye" unicode="&#59069;" d="M724.114286 384L387.803429 720.164571a36.571429 36.571429 0 1 0 51.712 51.712l362.057142-362.057142a36.425143 36.425143 0 0 0 0-51.712l-362.057142-362.057143a36.571429 36.571429 0 1 0-51.712 51.785143L724.114286 384zM504.685714 384L168.374857 720.164571a36.571429 36.571429 0 0 0 51.712 51.712l362.057143-362.057142a36.425143 36.425143 0 0 0 0-51.712l-362.057143-362.057143a36.571429 36.571429 0 1 0-51.712 51.785143L504.685714 384z"  horiz-adv-x="1024" />

    
    <glyph glyph-name="tubiao-zuofanye" unicode="&#59070;" d="M299.885714 384l336.237715 336.164571a36.571429 36.571429 0 0 1-51.712 51.712l-362.057143-362.057142a36.425143 36.425143 0 0 1 0-51.712l362.057143-362.057143a36.571429 36.571429 0 0 1 51.712 51.785143L299.885714 384zM519.314286 384l336.237714 336.164571a36.571429 36.571429 0 0 1-51.712 51.712l-362.057143-362.057142a36.425143 36.425143 0 0 1 0-51.712l362.057143-362.057143a36.571429 36.571429 0 0 1 51.712 51.785143L519.314286 384z"  horiz-adv-x="1024" />

    
    <glyph glyph-name="tubiao-youfanyedan" unicode="&#59071;" d="M650.971429 384L314.660571 720.164571a36.571429 36.571429 0 0 0 51.712 51.712l362.057143-362.057142a36.425143 36.425143 0 0 0 0-51.712l-362.057143-362.057143a36.571429 36.571429 0 1 0-51.712 51.785143L650.971429 384z"  horiz-adv-x="1024" />

    
    <glyph glyph-name="tubiao-zuofanye-dan" unicode="&#59072;" d="M373.028571 384l336.237715 336.164571a36.571429 36.571429 0 0 1-51.712 51.712l-362.057143-362.057142a36.425143 36.425143 0 0 1 0-51.712l362.057143-362.057143a36.571429 36.571429 0 0 1 51.712 51.785143L373.028571 384z"  horiz-adv-x="1024" />

    
    <glyph glyph-name="tubiao-zhishiqishang" unicode="&#59073;" d="M512 522.971429L175.835429 186.660571a36.571429 36.571429 0 0 0-51.712 51.712l362.057142 362.057143a36.425143 36.425143 0 0 0 51.712 0l362.057143-362.057143a36.571429 36.571429 0 0 0-51.785143-51.712L512 522.971429z"  horiz-adv-x="1024" />

    
    <glyph glyph-name="copy" unicode="&#59074;" d="M826.368 676.571h-482.45c-68.462 0-124.489-56.027-124.489-124.489v-482.45c0-68.462 56.027-124.489 124.489-124.489h482.45c68.462 0 124.489 56.027 124.489 124.489v482.45c0 68.462-56.027 124.489-124.489 124.489zM877.714 78.263c0-32.914-27.063-59.977-59.977-59.977h-465.189c-33.075 0.124-59.853 26.903-59.977 59.966l-0 465.2c0 32.914 27.063 59.977 59.977 59.977h465.189c32.914 0 59.977-27.063 59.977-59.977v-465.189zM402.286 347.429h365.714v-73.143h-365.714v73.143zM621.714 493.714v-365.714h-73.143v365.714h73.143zM73.143 164.571v585.143c0 40.396 32.747 73.143 73.143 73.143h585.143c0.002 0 0.004 0 0.006 0 20.198 0 36.571-16.374 36.571-36.571 0-20.198-16.374-36.571-36.571-36.571-0.002 0-0.004 0-0.006 0l-563.2-0c0 0 0 0 0 0-12.119 0-21.943-9.824-21.943-21.943v-563.2c0-0.002 0-0.004 0-0.006 0-20.198-16.374-36.571-36.571-36.571-20.198 0-36.571 16.374-36.571 36.571 0 0.002 0 0.004 0 0.006z"  horiz-adv-x="1024" />

    
    <glyph glyph-name="export" unicode="&#59075;" d="M548.571 624.859v-423.717c-0-20.198-16.374-36.571-36.571-36.571-20.198 0-36.571 16.374-36.571 36.571v436.224l-156.965-156.965c-6.624-6.633-15.779-10.736-25.893-10.736-20.209 0-36.592 16.383-36.592 36.592 0 10.095 4.088 19.236 10.7 25.856l206.921 206.921c6.619 6.621 15.764 10.717 25.865 10.717 2.233 0 4.418-0.2 6.54-0.583 1.617 0.359 3.734 0.546 5.896 0.546 10.148 0 19.336-4.108 25.992-10.753l206.847-206.847c6.888-6.659 11.165-15.983 11.165-26.305 0-20.198-16.374-36.571-36.571-36.571-10.322 0-19.646 4.277-26.296 11.155l-144.467 144.467zM950.857 237.714v-219.429c0-40.396-32.747-73.143-73.143-73.143 0 0 0 0 0 0h-731.429c-40.396 0-73.143 32.747-73.143 73.143 0 0 0 0 0 0v219.429c0.003 20.195 16.376 36.565 36.571 36.565 20.196 0 36.568-16.37 36.571-36.565l0-197.486c0-12.119 9.824-21.943 21.943-21.943h687.543c12.119 0 21.943 9.824 21.943 21.943v197.486c-0 0.002-0 0.004-0 0.006 0 20.198 16.374 36.571 36.571 36.571 20.198 0 36.571-16.374 36.571-36.571 0-0.002-0-0.004-0-0.006z"  horiz-adv-x="1024" />

    
    <glyph glyph-name="edit" unicode="&#59076;" d="M929.938 791.259c9.935-9.928 16.080-23.648 16.080-38.802 0-15.155-6.145-28.874-16.079-38.802l-478.355-478.355-77.605 77.531 478.354 478.354c9.928 9.935 23.648 16.080 38.802 16.080s28.874-6.145 38.802-16.079zM380.343 225.134c-0.611-0.091-1.317-0.142-2.035-0.142-8.079 0-14.629 6.549-14.629 14.629 0 0.695 0.048 1.379 0.142 2.048l10.158 71.164 77.531-77.531-71.168-10.24zM585.143 749.714h-365.714c0 0 0 0 0 0-40.396 0-73.143-32.747-73.143-73.143v-658.286c0-40.396 32.747-73.143 73.143-73.143h585.143c0 0 0 0 0 0 40.396 0 73.143 32.747 73.143 73.143 0 0 0 0 0 0v438.857c0 0.002 0 0.004 0 0.006 0 20.198-16.374 36.571-36.571 36.571-20.198 0-36.571-16.374-36.571-36.571 0-0.002 0-0.004 0-0.006l-0-416.914c0-12.119-9.824-21.943-21.943-21.943-0 0-0 0-0 0h-541.257c-0 0-0 0-0 0-12.119 0-21.943 9.824-21.943 21.943 0 0 0 0 0 0v614.4c-0 0-0 0-0 0 0 12.119 9.824 21.943 21.943 21.943 0 0 0 0 0-0h343.771c20.195 0.003 36.565 16.376 36.565 36.571 0 20.196-16.37 36.568-36.565 36.571z"  horiz-adv-x="1024" />

    
    <glyph glyph-name="tubiao-shenhe" unicode="&#59077;" d="M292.571429 18.285714H168.228571a21.942857 21.942857 0 0 0-21.942857 21.942857V727.771429a21.942857 21.942857 0 0 0 21.942857 21.942857h687.542858a21.942857 21.942857 0 0 0 21.942857-21.942857V603.428571a36.571429 36.571429 0 1 1 73.142857 0V749.714286a73.142857 73.142857 0 0 1-73.142857 73.142857H146.285714a73.142857 73.142857 0 0 1-73.142857-73.142857v-731.428572a73.142857 73.142857 0 0 1 73.142857-73.142857h146.285715a36.571429 36.571429 0 1 1 0 73.142857zM805.741714 141.970286l164.717715-164.717715a36.571429 36.571429 0 0 0-51.712-51.712l-164.717715 164.717715a329.142857 329.142857 0 1 0 51.712 51.712zM548.571429 91.428571a256 256 0 1 1 0 512 256 256 0 0 1 0-512zM494.153143 238.957714a109.714286 109.714286 0 0 1 60.489143 210.944 36.571429 36.571429 0 1 0 20.187428 70.290286A182.857143 182.857143 0 1 0 473.965714 168.667429a36.571429 36.571429 0 0 0 20.114286 70.290285zM402.285714 237.714286a36.571429 36.571429 0 1 0 0 73.142857 36.571429 36.571429 0 0 0 0-73.142857z"  horiz-adv-x="1024" />

    
    <glyph glyph-name="tubiao-xiaosanjiao-you" unicode="&#59079;" d="M704.073143 365.714286l-377.417143-251.611429A21.942857 21.942857 0 0 0 292.571429 132.388571V635.611429a21.942857 21.942857 0 0 0 34.084571 18.285714l377.417143-251.611429a21.942857 21.942857 0 0 0 0-36.571428z"  horiz-adv-x="1024" />

    
    <glyph glyph-name="tingyong" unicode="&#59078;" d="M512-128A512 512 0 1 0 512 896a512 512 0 0 0 0-1024z m0 73.142857A438.857143 438.857143 0 1 1 512 822.857143a438.857143 438.857143 0 0 1 0-877.714286zM438.857143 530.285714h146.285714a73.142857 73.142857 0 0 0 73.142857-73.142857v-146.285714a73.142857 73.142857 0 0 0-73.142857-73.142857H438.857143a73.142857 73.142857 0 0 0-73.142857 73.142857V457.142857a73.142857 73.142857 0 0 0 73.142857 73.142857z"  horiz-adv-x="1024" />

    
    <glyph glyph-name="bar" unicode="&#59080;" d="M773.997714 173.78742899999997l226.742857-226.742858a36.571429 36.571429 0 1 0-51.712-51.785142l-226.742857 226.742857a438.857143 438.857143 0 1 0 51.712 51.712zM438.857143 91.42857100000003A365.714286 365.714286 0 1 1 438.857143 822.857143a365.714286 365.714286 0 0 1 0-731.428572z"  horiz-adv-x="1024" />

    
    <glyph glyph-name="tubiao-mubiaofenjie" unicode="&#58995;" d="M1251.736416 688.3884390000001l-14.353757 141.613873-165.43815-158.187283 7.54682-98.700578-144.277456-147.532948c-0.887861-0.443931-1.331792-1.331792-2.219653-2.219653l-0.887862-0.887862c-5.327168-6.215029-8.878613-14.797688-8.878612-23.6763 0-13.021965 7.10289-25.452023 18.349133-31.667052 11.690173-6.65896 25.452023-6.65896 36.698266 0 2.663584 1.331792 4.883237 3.107514 6.658959 4.883237l149.752601 147.089017 95.149133-6.215029 159.075145 161.738729-137.174567 13.761849zM946.460116 518.954913l-62.150289-69.69711s-60.818497-6.65896-77.243931-77.24393c0 0-11.246243-73.248555 44.245087-106.395376 0 0 77.243931-50.460116 134.954913 17.905202 0 0 17.905202 21.900578 24.564162 46.46474l66.145665 68.809249s35.810405-117.937572-54.899422-182.307515c0 0-95.149133-83.606936-231.435839 7.990752 0 0-101.956069 88.934104-24.564161 219.00578-0.147977 0.443931 46.760694 88.046243 180.383815 75.468208zM1300.420809 483.588439l-54.899422-54.899422c34.478613-219.449711-84.494798-316.374566-84.494797-316.374566-119.269364-132.73526-298.469364-100.180347-298.469365-100.180347-133.623121 21.900578-197.105202 97.368786-197.105202 97.368786-90.709827 76.8-100.624277 216.342197-100.624277 216.342197-7.990751 103.287861 45.576879 194.441618 45.576878 194.441618 44.689017 82.275145 126.964162 130.515607 126.964162 130.515607 117.049711 65.701734 253.336416 34.478613 253.336416 34.478613l53.56763 51.791907c-96.480925 39.80578-225.66474 15.241618-225.66474 15.241619C663.972254 727.306358 574.59422 594.571098 574.59422 594.571098 461.539884 435.347977 503.121387 274.053179 503.121387 274.053179c41.137572-195.77341 202.43237-283.819653 202.43237-283.819653 209.091329-113.498266 385.627746-11.246243 385.627746-11.246243 177.424277 88.934104 219.00578 260.143353 219.00578 260.143353 37.142197 126.520231-9.766474 244.457803-9.766474 244.457803z"  horiz-adv-x="1879" />

    
    <glyph glyph-name="tubiao-zhuanhua" unicode="&#59084;" d="M115.419429 450.779429h793.380571a41.545143 41.545143 0 0 1 25.819429 74.020571 41.691429 41.691429 0 0 1-8.850286 8.411429L629.394286 741.229714a41.545143 41.545143 0 1 1-47.762286-68.022857l198.656-139.337143h-664.868571a41.545143 41.545143 0 0 1 0-83.090285z m793.380571-165.888H115.419429a41.545143 41.545143 0 0 1-25.746286-74.020572 41.472 41.472 0 0 1 8.777143-8.411428l296.374857-208.018286a41.472 41.472 0 1 1 47.762286 68.022857L244.004571 201.801143h664.868572a41.545143 41.545143 0 0 1 0 83.090286z"  horiz-adv-x="1024" />

    
    <glyph glyph-name="tubiao-chanpinfenpei" unicode="&#59085;" d="M1010.103589 552.96L703.415589 814.08a35.328 35.328 0 0 1-39.131429 4.754286 39.643429 39.643429 0 0 1-20.992-35.474286v-83.821714H483.694446c-20.48 0-37.010286-17.627429-37.010286-39.497143 0-21.723429 16.603429-39.350857 37.010286-39.350857h196.681143c20.406857 0 36.937143 17.627429 36.937142 39.424v41.179428l210.358858-179.2-210.358858-179.2V384c0 21.796571-16.530286 39.497143-36.937142 39.497143H380.563017V507.099429a39.643429 39.643429 0 0 1-20.918857 35.547428 35.035429 35.035429 0 0 1-39.204571-4.681143L13.971017 276.772571a40.448 40.448 0 0 1-13.897143-30.793142c0-11.995429 5.12-23.332571 13.897143-30.866286l306.468572-261.193143a35.693714 35.693714 0 0 1 39.204571-4.754286 39.643429 39.643429 0 0 1 20.918857 35.547429v83.748571h169.691429c20.48 0 37.010286 17.700571 37.010285 39.497143 0 21.796571-16.530286 39.424-36.937142 39.424H343.625874c-20.48 0-37.010286-17.627429-37.010285-39.497143v-41.179428l-210.285715 179.2 210.285715 179.273143V384c0-10.532571 3.876571-20.626286 10.898285-28.013714 6.948571-7.314286 16.310857-11.483429 26.112-11.483429H343.77216l299.52 0.146286v-83.821714c0-15.140571 8.118857-28.964571 20.992-35.547429 12.580571-6.509714 27.940571-4.681143 39.131429 4.754286l306.541714 261.266285a40.448 40.448 0 0 1 13.897143 30.72 40.448 40.448 0 0 1-13.897143 30.866286z"  horiz-adv-x="1024" />

    
    <glyph glyph-name="tubiao-yinyong" unicode="&#59086;" d="M757.76 801.133714c81.188571-4.754286 154.477714-44.909714 192.365714-134.217143 38.546286-90.697143 21.357714-175.177143-45.056-247.222857-47.030857-51.053714-97.572571-98.816-146.944-147.602285-21.430857-21.211429-55.808-21.942857-74.386285-2.340572-18.797714 19.748571-16.749714 46.957714 5.851428 69.705143 48.493714 48.713143 97.645714 96.768 145.554286 145.92 72.265143 74.093714 40.228571 191.853714-59.611429 218.477714-41.545143 10.971429-81.408 3.364571-113.005714-26.112-50.761143-47.323429-98.596571-97.718857-149.211429-145.188571-10.678857-10.020571-28.452571-18.724571-42.349714-17.773714-37.156571 2.194286-56.027429 47.396571-30.281143 74.313142A3238.619429 3238.619429 0 0 0 611.986286 757.028571c36.132571 32.548571 83.236571 43.739429 145.773714 44.032z m-663.113143-651.776a223.158857 223.158857 0 0 0 65.609143 160.475429c48.054857 49.078857 96.914286 97.426286 145.700571 145.846857 23.186286 22.966857 51.638857 24.722286 71.241143 4.973714 20.48-20.626286 18.432-46.592-5.705143-70.948571-46.445714-46.665143-93.622857-92.672-139.629714-139.849143-56.832-58.221714-59.245714-136.777143-6.875428-189.586286 50.176-50.468571 133.12-50.761143 185.490285 0.365715 47.542857 46.518857 93.988571 94.354286 141.458286 140.946285 28.525714 27.940571 71.899429 17.993143 79.433143-19.602285a56.905143 56.905143 0 0 0-12.068572-43.885715c-51.638857-54.418286-103.204571-109.421714-159.451428-158.866285-68.900571-60.562286-149.577143-70.582857-233.691429-33.865143-81.334857 35.474286-131.291429 115.419429-131.510857 203.995428zM373.028571 285.403429l237.933715 238.006857a51.2 51.2 0 1 0 72.411428-72.411429L445.44 213.065143a51.2 51.2 0 1 0-72.411429 72.411428z"  horiz-adv-x="1024" />

    
    <glyph glyph-name="tubiao-dayin" unicode="&#59087;" d="M219.428571 237.714286H146.285714a73.142857 73.142857 0 0 0-73.142857 73.142857V603.428571a73.142857 73.142857 0 0 0 73.142857 73.142858h73.142857V749.714286a73.142857 73.142857 0 0 0 73.142858 73.142857h438.857142a73.142857 73.142857 0 0 0 73.142858-73.142857v-73.142857h73.142857a73.142857 73.142857 0 0 0 73.142857-73.142858v-292.571428a73.142857 73.142857 0 0 0-73.142857-73.142857h-73.142857v-219.428572a73.142857 73.142857 0 0 0-73.142858-73.142857H292.571429a73.142857 73.142857 0 0 0-73.142858 73.142857V237.714286z m585.142858 73.142857h36.571428a36.571429 36.571429 0 0 1 36.571429 36.571428v219.428572a36.571429 36.571429 0 0 1-36.571429 36.571428h-658.285714a36.571429 36.571429 0 0 1-36.571429-36.571428v-219.428572a36.571429 36.571429 0 0 1 36.571429-36.571428H219.428571V384a73.142857 73.142857 0 0 0 73.142858 73.142857h438.857142a73.142857 73.142857 0 0 0 73.142858-73.142857v-73.142857zM329.142857 749.714286a36.571429 36.571429 0 0 1-36.571428-36.571429V676.571429h438.857142v36.571428a36.571429 36.571429 0 0 1-36.571428 36.571429h-365.714286z m0-365.714286a36.571429 36.571429 0 0 1-36.571428-36.571429v-292.571428a36.571429 36.571429 0 0 1 36.571428-36.571429h365.714286a36.571429 36.571429 0 0 1 36.571428 36.571429v292.571428a36.571429 36.571429 0 0 1-36.571428 36.571429h-365.714286z m73.142857-219.428571h219.428572a36.571429 36.571429 0 1 0 0-73.142858h-219.428572a36.571429 36.571429 0 1 0 0 73.142858z m0 146.285714h219.428572a36.571429 36.571429 0 0 0 0-73.142857h-219.428572a36.571429 36.571429 0 0 0 0 73.142857z"  horiz-adv-x="1024" />

    
    <glyph glyph-name="tubiao-yinzishezhi" unicode="&#59091;" d="M806.107429 235.52c-50.468571 0-95.012571-26.112-120.905143-65.536L454.290286 334.336a194.048 194.048 0 0 1-8.704 121.124571L697.051429 582.509714a144.091429 144.091429 0 0 1 109.056-49.883428c79.725714 0 144.676571 65.097143 144.676571 145.115428A145.042286 145.042286 0 0 1 806.034286 822.857143a145.042286 145.042286 0 0 1-141.019429-177.371429L407.186286 515.072a192.512 192.512 0 0 1-140.507429 60.708571A194.048 194.048 0 0 1 73.142857 381.732571a194.048 194.048 0 0 1 193.536-194.121142c64.877714 0 122.441143 32.256 157.622857 81.554285l237.568-168.96A145.042286 145.042286 0 0 1 806.180571-54.857143a145.188571 145.188571 0 0 1-0.073142 290.377143v-0.073143z m0 516.754286a74.459429 74.459429 0 0 0 0-149.065143 74.459429 74.459429 0 0 0 0 149.065143zM266.678857 258.121143a123.465143 123.465143 0 0 0-123.172571 123.611428c0 68.096 55.222857 123.538286 123.172571 123.538286 67.876571 0 123.099429-55.442286 123.099429-123.611428 0-68.096-55.222857-123.538286-123.099429-123.538286z m539.428572-242.249143a74.459429 74.459429 0 0 0 0 148.992 74.459429 74.459429 0 0 0 0-148.992z"  horiz-adv-x="1024" />

    
    <glyph glyph-name="tubiao-baocun" unicode="&#59092;" d="M155.501714 822.857143C110.006857 822.857143 73.142857 785.993143 73.142857 740.498286v-712.996572C73.142857-17.993143 110.006857-54.857143 155.501714-54.857143h712.996572c45.494857 0 82.358857 36.864 82.358857 82.358857V542.573714L670.500571 822.857143h-514.925714z m415.012572-72.850286v-249.270857c0-24.137143-20.626286-43.593143-46.08-43.593143H338.651429C313.197714 457.142857 292.571429 476.598857 292.571429 500.736V750.006857h277.942857z m314.075428-735.817143H141.677714V749.933714h78.994286v-245.174857c0-68.169143 55.369143-123.611429 123.611429-123.611428h165.888a123.611429 123.611429 0 0 1 123.611428 123.611428V750.006857l250.806857-245.174857v-490.715429z m-421.302857 531.821715a41.179429 41.179429 0 0 1 41.179429 41.252571V636.342857a41.179429 41.179429 0 1 1-82.432 0v-49.152c0-22.820571 18.432-41.252571 41.252571-41.252571z"  horiz-adv-x="1024" />

    
    <glyph glyph-name="tubiao-zhuanxiaoshoudingdan" unicode="&#59093;" d="M366.884571 573.293714H710.217143L593.042286 456.045714a35.328 35.328 0 0 1 25.088-60.416 35.474286 35.474286 0 0 1 25.088 10.313143l175.616 175.616a35.693714 35.693714 0 0 1 0 50.176l-180.809143 180.662857a35.328 35.328 0 1 1-50.102857-50.029714l118.272-118.272H366.884571a291.913143 291.913143 0 0 1-207.725714-86.016A292.205714 292.205714 0 0 1 73.142857 350.281143a35.401143 35.401143 0 1 1 70.802286 0c0 59.538286 23.259429 115.565714 65.316571 157.696a221.476571 221.476571 0 0 0 157.622857 65.316571z m548.425143-121.709714a35.401143 35.401143 0 0 1-35.401143-35.401143 221.622857 221.622857 0 0 0-65.316571-157.696 221.549714 221.549714 0 0 0-157.696-65.316571H313.563429L430.811429 310.418286a35.328 35.328 0 1 1-50.029715 50.102857l-175.616-175.542857a35.693714 35.693714 0 0 1 0-50.176l180.662857-180.809143a35.474286 35.474286 0 1 1 50.176 50.102857l-118.272 118.345143h339.309715a291.913143 291.913143 0 0 1 207.725714 86.089143A291.913143 291.913143 0 0 1 950.857143 416.182857a35.547429 35.547429 0 0 1-35.547429 35.328z"  horiz-adv-x="1024" />

    
    <glyph glyph-name="tubiao-chakan" unicode="&#59094;" d="M949.979429 384c2.194286 10.532571-8.704 31.963429-8.704 31.963429-20.114286 60.196571-60.416 115.2-118.272 159.890285-83.382857 64.438857-193.755429 99.986286-310.857143 99.986286-117.028571 0-227.401143-35.547429-310.784-99.986286-57.782857-44.690286-98.084571-99.693714-118.272-159.890285 0 0-10.971429-21.430857-8.704-31.963429-2.194286-10.532571 8.777143-31.963429 8.777143-31.963429 20.114286-60.269714 60.416-115.2 118.198857-159.890285 83.382857-64.512 193.828571-99.986286 310.857143-99.986286s227.474286 35.474286 310.857142 99.986286c57.782857 44.617143 98.011429 99.620571 118.198858 159.890285 0 0 10.971429 21.430857 8.777142 31.963429z m-437.76-225.645714C330.971429 158.354286 179.2 255.268571 143.213714 384c35.986286 128.731429 187.757714 225.572571 369.005715 225.572571 181.248 0 333.019429-96.914286 369.005714-225.572571-35.986286-128.731429-187.757714-225.645714-369.005714-225.645714z m0 87.186285A139.190857 139.190857 0 0 0 372.589714 384c0 76.288 62.610286 138.386286 139.629715 138.386286 76.946286 0 139.556571-62.098286 139.556571-138.386286a139.190857 139.190857 0 0 0-139.556571-138.459429z m0 210.651429A72.557714 72.557714 0 0 1 439.442286 384c0-39.789714 32.621714-72.192 72.777143-72.192A72.557714 72.557714 0 0 1 584.996571 384a72.557714 72.557714 0 0 1-72.777142 72.192z"  horiz-adv-x="1024" />

    
    <glyph glyph-name="tubiao-shangchuan" unicode="&#59095;" d="M512.007314 332.288V-18.285714a36.571429 36.571429 0 1 0-73.142857 0V332.288l-62.464-62.464a36.571429 36.571429 0 1 0-51.712 51.712l103.497143 103.497143a36.425143 36.425143 0 0 0 13.019429 8.338286 36.571429 36.571429 0 0 0 68.461714 0 36.425143 36.425143 0 0 0 13.019428-8.338286l103.497143-103.497143a36.571429 36.571429 0 1 0-51.712-51.712L512.007314 332.288z m317.366857 233.398857c107.227429 0 194.194286-88.502857 194.194286-197.851428 0-103.277714-77.897143-188.196571-177.078857-194.267429h-83.748571a52.589714 52.589714 0 0 0-52.224 52.516571v-30.573714c0 28.964571 23.405714 52.516571 52.297142 52.516572h71.094858c64.731429 2.56 116.516571 53.321143 116.516571 119.808 0 66.706286-51.931429 120.978286-116.809143 123.318857 0-0.950857-46.811429-1.316571-46.811428-1.316572a28.16 28.16 0 0 0-28.233143 25.819429s-2.486857 35.474286-2.267429 35.547428c-21.577143 112.347429-118.784 197.193143-235.373714 197.193143a234.788571 234.788571 0 0 1-179.931429-83.821714s-11.410286-10.971429-21.723428-28.525714c-7.021714-11.922286-6.729143-11.995429-6.729143-11.995429a41.691429 41.691429 0 0 0-37.888-20.845714s-29.622857 3.803429-50.541714 2.267428C138.613029 592.164571 73.150171 516.900571 73.150171 426.057143A177.078857 177.078857 0 0 1 251.911314 247.954286c19.382857-0.877714 40.521143-17.188571 40.521143-37.156572 0-20.553143-19.748571-37.302857-41.106286-37.302857A250.733714 250.733714 0 0 0 0.007314 426.130286c0 141.385143 112.566857 256 251.318857 256 3.291429 0 6.582857-0.073143 9.801143-0.219429A311.149714 311.149714 0 0 0 520.784457 822.857143c152.137143 0 278.966857-110.592 308.516572-257.170286z"  horiz-adv-x="1024" />

    
    <glyph glyph-name="tubiao-xiazai" unicode="&#59096;" d="M509.666743-31.085714a36.571429 36.571429 0 0 0-68.461714 0 36.425143 36.425143 0 0 0-13.019429 8.338285l-103.497143 103.497143a36.571429 36.571429 0 0 0 51.712 51.712l62.464-62.464V420.571429a36.571429 36.571429 0 0 0 73.142857 0v-350.573715l62.464 62.464a36.571429 36.571429 0 0 0 51.712-51.712l-103.497143-103.497143a36.425143 36.425143 0 0 0-13.019428-8.338285z m319.634286 596.845714c107.300571 0 194.267429-88.649143 194.267428-197.924571 0-103.277714-77.897143-188.196571-177.078857-194.267429h-83.748571a52.589714 52.589714 0 0 0-52.224 52.516571v-30.573714c0 28.964571 23.405714 52.516571 52.297142 52.516572h71.094858c64.731429 2.56 116.516571 53.321143 116.516571 119.808 0 66.706286-51.931429 120.978286-116.809143 123.318857 0-0.950857-46.811429-1.316571-46.811428-1.316572a28.16 28.16 0 0 0-28.233143 25.819429s-2.486857 35.474286-2.267429 35.547428c-21.577143 112.347429-118.784 197.193143-235.373714 197.193143a234.788571 234.788571 0 0 1-179.931429-83.821714s-11.410286-10.971429-21.723428-28.525714c-7.021714-11.922286-6.729143-11.995429-6.729143-11.995429a41.691429 41.691429 0 0 0-37.888-20.845714s-29.622857 3.803429-50.541714 2.267428C138.613029 592.164571 73.150171 516.900571 73.150171 426.057143A177.078857 177.078857 0 0 1 251.911314 247.954286c19.382857-0.877714 40.521143-17.188571 40.521143-37.156572 0-20.553143-19.748571-37.302857-41.106286-37.302857A250.733714 250.733714 0 0 0 0.007314 426.130286c0 141.385143 112.566857 256 251.318857 256 3.291429 0 6.582857-0.073143 9.801143-0.219429A311.149714 311.149714 0 0 0 520.784457 822.857143c152.137143 0 278.966857-110.592 308.516572-257.170286z"  horiz-adv-x="1024" />

    
    <glyph glyph-name="tubiao-fujian" unicode="&#59097;" d="M827.977143 268.288a35.181714 35.181714 0 0 1 0 48.420571 32.036571 32.036571 0 0 1-46.592 0.073143l-0.365714 0.438857-247.954286-257.974857a191.488 191.488 0 0 0-261.778286 15.36c-71.460571 74.386286-76.361143 192.146286-14.774857 272.457143l361.033143 385.609143a121.856 121.856 0 0 0 156.525714-17.408 134.582857 134.582857 0 0 0 16.676572-162.889143L467.968 215.625143a43.081143 43.081143 0 0 0-68.534857-7.826286 47.396571 47.396571 0 0 0 7.533714 71.314286l254.171429 266.752c1.024 0.731429 1.974857 1.755429 2.925714 2.633143a35.254857 35.254857 0 0 1 0 48.493714 31.963429 31.963429 0 0 1-46.665143 0c-0.365714-0.438857-0.731429-0.804571-1.024-1.316571l-0.073143 0.146285-256.731428-267.337143a118.784 118.784 0 0 1-7.094857-169.691428 107.885714 107.885714 0 0 1 163.035428 7.314286l323.072 336.603428c56.832 78.189714 51.053714 190.317714-17.334857 261.558857a186.587429 186.587429 0 0 1-251.318857 18.066286L209.188571 396.361143c-87.478857-107.52-82.432-269.312 14.994286-370.688a256.292571 256.292571 0 0 1 352.987429-18.285714l0.292571-0.365715 250.733714 260.973715-0.292571 0.292571z"  horiz-adv-x="1024" />

    
    <glyph glyph-name="tubiao-jiage" unicode="&#59098;" d="M768.950857 688.566857a47.908571 47.908571 0 0 0 47.542857-47.542857v-543.744a47.908571 47.908571 0 0 0-47.542857-47.542857H401.993143a47.908571 47.908571 0 0 0-47.542857 47.542857V688.566857h414.500571z m0 61.147429H293.302857v-652.434286c0-59.830857 49.005714-108.763429 108.763429-108.763429h366.957714c59.830857 0 108.763429 49.005714 108.763429 108.763429V640.950857C877.714286 700.781714 828.708571 749.714286 768.950857 749.714286zM745.179429 521.289143h-49.810286a30.281143 30.281143 0 0 1-8.411429-1.901714l-0.365714-0.146286-0.950857-0.365714a30.354286 30.354286 0 0 1-14.555429-12.8L610.011429 400.091429a29.257143 29.257143 0 0 1-1.170286-2.340572H596.114286a27.940571 27.940571 0 0 1-1.243429 2.340572L533.796571 506.148571a30.354286 30.354286 0 0 1-14.628571 12.726858l-0.877714 0.365714-0.292572 0.146286a30.281143 30.281143 0 0 1-8.484571 1.828571h-0.219429l-1.024 0.073143h-48.493714a30.573714 30.573714 0 0 1 0-61.147429h29.915429l35.986285-62.390857h-31.085714a30.573714 30.573714 0 1 1 0-61.147428H572.708571v-34.889143H494.592a30.72 30.72 0 0 1-30.573714-30.573715c0-16.822857 13.677714-30.500571 30.573714-30.573714H572.708571v-60.269714a30.573714 30.573714 0 1 1 61.220572 0v60.269714h78.116571a30.72 30.72 0 0 1 30.573715 30.573714 30.72 30.72 0 0 1-30.573715 30.573715H633.929143v34.889143h78.116571a30.573714 30.573714 0 0 1 0 61.147428h-32.841143l36.059429 62.390857h29.988571a30.573714 30.573714 0 0 1 0 61.147429l-0.073142 0.073143z m-452.754286 167.058286V593.188571h-84.845714c1.389714 24.868571 10.386286 48.274286 25.819428 66.121143 15.213714 17.627429 34.962286 27.940571 55.588572 29.037715h3.364571v0.073142zM292.571429 749.494857a138.971429 138.971429 0 0 1-5.339429-0.146286h-1.462857C208.457143 745.325714 146.285714 673.645714 146.285714 586.605714v-27.501714c0-14.994286 10.971429-27.209143 24.429715-27.209143h182.857142V749.421714h-55.442285a131.657143 131.657143 0 0 1-5.485715 0.073143z"  horiz-adv-x="1024" />

    
    <glyph glyph-name="zidongpeizhi" unicode="&#58976;" d="M187.238 728.88H793.88V830.404H85.714v-708.168h70.818v0.002h30.706z m728.014-514.628h-40.364c-3.806 8.2-9.2 25.255-16.105 37.407l28.508 27.705c9.003 9.003 9.014 23.163 0.019 32.151l-32.544 32.347c-8.986 8.985-23.556 8.888-32.56-0.108l-26.92-28.55c-12.133 6.896-29.189 12.251-37.389 16.055v40.359c0 12.724-13.48 23.023-26.18 23.023h-46.023c-12.708 0-26.189-10.3-26.189-23.023v-40.366c-8.2-3.804-25.248-9.2-37.398-16.095l-27.712 28.508c-9.003 9.003-23.174 9.003-32.152 0.018l-32.346-32.552c-8.979-8.978-8.896-23.549 0.107-32.56l28.558-26.92c-6.904-12.15-12.25-29.198-16.054-37.398h-40.356c-12.734 0-23.034-13.48-23.034-26.178v-46.023c0-12.703 10.3-26.189 23.034-26.189h40.364c3.806-8.2 9.209-25.245 16.097-37.399l-28.51-27.722c-9.004-9.001-9.004-23.153-0.016-32.142l32.542-32.354c8.979-8.978 23.557-8.888 32.56 0.116l26.92 28.558c12.15-6.896 29.199-12.249 37.399-16.055V-41.5c0-12.725 13.48-23.023 26.178-23.023h46.023c12.702 0 26.188 10.3 26.188 23.033v40.365c8.2 3.805 25.245 9.208 37.407 16.104l27.715-28.508c9-9.003 23.153-9.003 32.142-0.018l32.353 32.544c8.979 8.986 8.889 23.555-0.115 32.56l-28.559 26.92c6.896 12.15 12.248 29.188 16.055 37.388h40.366c12.725 0 23.024 13.48 23.024 26.181v46.023c0 12.705-10.299 26.184-23.033 26.184z m-206.551-152.73c-57.189 0-103.548 46.36-103.548 103.544 0 57.191 46.358 103.551 103.548 103.551 57.199 0 103.551-46.359 103.551-103.551 0-57.184-46.352-103.544-103.551-103.544zM328.87 587.488h507.89V384h101.525V689.012h-710.94v-708.413h212.45v0.247h10.218V82.37H328.871z"  horiz-adv-x="1024" />

    
    <glyph glyph-name="tubiao-dongjie" unicode="&#58881;" d="M219.428571 530.285714h658.285715a73.142857 73.142857 0 0 0 73.142857-73.142857v-438.857143a73.142857 73.142857 0 0 0-73.142857-73.142857H219.428571a73.142857 73.142857 0 0 0-73.142857 73.142857V457.142857a73.142857 73.142857 0 0 0 73.142857 73.142857z m36.571429-73.142857a36.571429 36.571429 0 0 1-36.571429-36.571428v-365.714286a36.571429 36.571429 0 0 1 36.571429-36.571429h585.142857a36.571429 36.571429 0 0 1 36.571429 36.571429v365.714286a36.571429 36.571429 0 0 1-36.571429 36.571428h-585.142857zM365.714286 530.285714v-73.142857h365.714285V530.285714H365.714286zM490.057143 217.965714a109.641143 109.641143 0 0 0 58.514286 202.605715 109.714286 109.714286 0 0 0 51.2-206.774858v-52.882285a54.857143 54.857143 0 0 0-109.714286 0v57.051428zM292.571429 530.285714a256 256 0 0 0 512 0h-73.142858a182.857143 182.857143 0 0 1-365.714285 0H292.571429z"  horiz-adv-x="1024" />

    
    <glyph glyph-name="tubiao-dongjiejiedong" unicode="&#58882;" d="M219.428571 530.285714h658.285715a73.142857 73.142857 0 0 0 73.142857-73.142857v-438.857143a73.142857 73.142857 0 0 0-73.142857-73.142857H219.428571a73.142857 73.142857 0 0 0-73.142857 73.142857V457.142857a73.142857 73.142857 0 0 0 73.142857 73.142857z m36.571429-73.142857a36.571429 36.571429 0 0 1-36.571429-36.571428v-365.714286a36.571429 36.571429 0 0 1 36.571429-36.571429h585.142857a36.571429 36.571429 0 0 1 36.571429 36.571429v365.714286a36.571429 36.571429 0 0 1-36.571429 36.571428h-585.142857zM365.714286 530.285714v-73.142857h365.714285V530.285714H365.714286zM490.057143 217.965714a109.641143 109.641143 0 0 0 58.514286 202.605715 109.714286 109.714286 0 0 0 51.2-206.774858v-52.882285a54.857143 54.857143 0 0 0-109.714286 0v57.051428zM758.710857 676.571429A256 256 0 0 1 292.571429 530.285714h73.142857a182.857143 182.857143 0 0 0 292.571428 146.285715h100.425143z"  horiz-adv-x="1024" />

    
    <glyph glyph-name="tubiao-shengji" unicode="&#58883;" d="M934.619429 426.788571L560.420571 800.987429a74.532571 74.532571 0 0 1-105.910857-0.219429L80.457143 426.715429c-46.957714-47.250286-13.531429-127.561143 53.101714-127.561143H283.062857v-149.211429c0-41.179429 33.645714-74.752 74.825143-74.752l299.373714-0.219428c41.325714 0 74.825143 33.499429 74.825143 74.752V299.008h149.650286c66.56 0 99.913143 80.676571 52.809143 127.780571z m-202.605715-52.955428H656.969143l0.365714-75.117714v-149.065143l-299.373714 0.219428V373.833143H133.412571l373.979429 374.125714 0.073143 0.073143 0.146286 0.146286 374.198857-374.198857h-149.723429v-0.146286z m22.528-373.613714H258.340571c-27.282286 0-49.590857-16.822857-49.590857-37.376s22.308571-37.376 49.590857-37.376h496.201143c27.282286 0 49.590857 16.822857 49.590857 37.302857-0.146286 20.626286-22.308571 37.449143-49.590857 37.449143z"  horiz-adv-x="1024" />

    
    <glyph glyph-name="tubiao-guanlian" unicode="&#58884;" d="M729.088 822.857143c-58.733714 0-118.052571-21.942857-163.108571-65.536L415.085714 609.645714a34.596571 34.596571 0 0 1 0-49.152 37.083429 37.083429 0 0 1 50.688 0L616.594286 707.876571h0.438857a159.012571 159.012571 0 0 0 111.908571 44.982858c88.064 0 158.646857-68.754286 158.646857-154.770286a152.868571 152.868571 0 0 0-46.08-109.641143L677.302857 328.045714a161.718857 161.718857 0 0 0-111.396571-44.032 160.182857 160.182857 0 0 0-136.265143 75.702857 157.549714 157.549714 0 0 0-15.725714 35.108572 35.766857 35.766857 0 0 1-44.617143 23.625143 34.889143 34.889143 0 0 1-23.698286-43.373715c5.558857-17.334857 13.165714-34.523429 23.332571-50.688v-0.292571a231.131429 231.131429 0 0 1 196.973715-109.275429 233.325714 233.325714 0 0 1 161.206857 63.780572l164.571428 160.694857c44.617143 43.593143 66.852571 101.302857 66.852572 158.72C958.464 722.578286 856.210286 822.857143 729.088 822.857143M566.272 190.610286L415.451429 43.008c-61.293714-59.977143-163.766857-60.123429-225.060572-0.219429v0.219429a153.6 153.6 0 0 0 0 219.282286l162.669714 159.378285a162.596571 162.596571 0 0 0 112.566858 44.763429 162.377143 162.377143 0 0 0 112.566857-44.763429v-0.438857c9.508571-9.142857 17.188571-19.382857 23.771428-30.208 7.094857-10.971429 12.141714-22.674286 15.798857-34.596571a35.401143 35.401143 0 0 1 43.958858-23.771429 35.108571 35.108571 0 0 1 24.502857 43.300572 262.070857 262.070857 0 0 1-22.308572 50.614857 278.893714 278.893714 0 0 1-34.962285 44.032 234.276571 234.276571 0 0 1-163.108572 65.536 234.057143 234.057143 0 0 1-163.181714-65.536L139.629714 311.588571a223.744 223.744 0 0 1 0-318.317714l2.56-1.828571c89.161143-84.772571 234.276571-84.041143 322.925715 1.316571v0.512l0.438857 0.438857 151.405714 147.456a34.596571 34.596571 0 0 1-0.365714 49.444572 36.352 36.352 0 0 1-50.322286 0"  horiz-adv-x="1024" />

    
    <glyph glyph-name="tubiao-huangou" unicode="&#58887;" d="M108.982857 364.909714c17.115429 0 32.036571 12.434286 34.816 29.842286a387.437714 387.437714 0 0 0 384.731429 328.045714 387.657143 387.657143 0 0 0 361.910857-245.394285 35.328 35.328 0 0 1 68.242286 13.677714V713.728a35.401143 35.401143 0 1 1-70.875429 0v-93.037714a463.579429 463.579429 0 0 1-98.230857 91.428571 460.068571 460.068571 0 0 1-715.629714-306.322286 35.328 35.328 0 0 1 34.962285-40.96zM942.665143 349.549714a35.328 35.328 0 0 1-40.374857-29.403428 387.145143 387.145143 0 0 0-384.438857-327.826286 387.437714 387.437714 0 0 0-359.716572 240.054857 35.401143 35.401143 0 0 1-70.363428-5.12v-222.573714a35.401143 35.401143 0 1 1 70.802285 0v89.380571c27.940571-34.816 60.854857-65.609143 98.157715-91.428571a459.702857 459.702857 0 0 1 715.337142 306.102857 35.547429 35.547429 0 0 1-29.403428 40.813714z"  horiz-adv-x="1024" />

    
    <glyph glyph-name="tuihuoshouhou" unicode="&#58888;" d="M566.345143 448h101.668571v-67.730286H554.934857v-45.202285h112.932572v-67.803429H555.008v-135.533714h-67.730286V267.264H374.345143v67.803429h112.932571v45.202285H374.345143v67.730286h101.668571L329.142857 594.797714l45.202286 45.202286 146.797714-146.797714L667.940571 640l45.202286-45.202286-146.797714-146.797714zM927.963429 384A415.963429 415.963429 0 0 0 512-32.036571 415.963429 415.963429 0 0 0 95.963429 384 415.963429 415.963429 0 0 0 512 800.036571c132.754286 0 251.611429-61.44 326.875429-158.500571H749.714286v-59.465143h198.070857V780.214857h-59.392V675.108571A473.965714 473.965714 0 0 1 512 859.428571 474.258286 474.258286 0 0 1 36.571429 384c0-263.460571 211.968-475.428571 475.428571-475.428571s475.428571 211.968 475.428571 475.428571h-59.465142z"  horiz-adv-x="1024" />

    
    <glyph glyph-name="tubiao-jisuan" unicode="&#58891;" d="M864.329143 896h-699.977143C94.354286 896 37.083429 838.729143 37.083429 768.731429v-763.611429c0-69.997714 57.270857-127.268571 127.268571-127.268571h699.977143c69.997714 0 127.268571 57.270857 127.268571 127.268571V768.731429c0 69.997714-57.270857 127.268571-127.268571 127.268571z m63.634286-890.88c0-35.035429-28.598857-63.634286-63.634286-63.634286h-699.977143a63.853714 63.853714 0 0 0-63.634286 63.634286v636.342857h827.245715v-636.342857z m0 699.977143H100.717714v63.634286c0 34.962286 28.672 63.634286 63.634286 63.634285h699.977143c35.035429 0 63.634286-28.672 63.634286-63.634285v-63.634286z m-159.085715-381.805714c52.516571 0 95.451429 42.934857 95.451429 95.451428S821.394286 514.194286 768.877714 514.194286c-52.443429 0-95.451429-42.934857-95.451428-95.451429s42.934857-95.451429 95.451428-95.451428z m31.817143 95.451428a31.817143 31.817143 0 1 0-63.634286 0 31.817143 31.817143 0 0 0 63.634286 0zM514.340571 323.291429c52.516571 0 95.451429 42.934857 95.451429 95.451428S566.857143 514.194286 514.340571 514.194286c-52.443429 0-95.451429-42.934857-95.451428-95.451429S461.824 323.291429 514.340571 323.291429z m31.817143 95.451428a31.817143 31.817143 0 1 0-63.634285 0 31.817143 31.817143 0 0 0 63.634285 0zM259.803429 323.291429c52.516571 0 95.451429 42.934857 95.451428 95.451428S312.32 514.194286 259.803429 514.194286c-52.443429 0-95.451429-42.934857-95.451429-95.451429S207.286857 323.291429 259.803429 323.291429z m31.817142 95.451428a31.817143 31.817143 0 1 0-63.634285 0 31.817143 31.817143 0 0 0 63.634285 0z m477.257143-351.670857c52.516571 0 95.451429 42.934857 95.451429 95.451429 0 52.443429-42.934857 95.451429-95.451429 95.451428-52.443429 0-95.451429-43.008-95.451428-95.451428 0-52.516571 42.934857-95.451429 95.451428-95.451429z m31.817143 95.451429a31.817143 31.817143 0 1 0-63.634286 0 31.817143 31.817143 0 0 0 63.634286 0z m-286.354286-95.451429c52.516571 0 95.451429 42.934857 95.451429 95.451429 0 52.443429-42.934857 95.451429-95.451429 95.451428-52.443429 0-95.451429-43.008-95.451428-95.451428 0-52.516571 42.934857-95.451429 95.451428-95.451429z m31.817143 95.451429a31.817143 31.817143 0 1 0-63.634285 0 31.817143 31.817143 0 0 0 63.634285 0z m-286.354285-95.451429c52.516571 0 95.451429 42.934857 95.451428 95.451429 0 52.443429-42.934857 95.451429-95.451428 95.451428-52.443429 0-95.451429-43.008-95.451429-95.451428 0-52.516571 42.934857-95.451429 95.451429-95.451429z m31.817142 95.451429a31.817143 31.817143 0 1 0-63.634285 0 31.817143 31.817143 0 0 0 63.634285 0z"  horiz-adv-x="1024" />

    
    <glyph glyph-name="tubiao-xiaoqizi" unicode="&#59161;" d="M857.234286 821.394286a9.728 9.728 0 0 1-10.093715-0.658286c-1.024-0.731429-102.253714-69.485714-169.106285-69.485714-3.949714 0-7.68 0.219429-11.190857 0.731428-26.989714 3.657143-48.274286 12.873143-70.875429 22.674286-32.182857 13.897143-65.609143 28.306286-117.906286 28.306286-3.949714 0-7.972571 0-11.995428-0.219429a683.885714 683.885714 0 0 1-174.372572-31.670857l-11.702857 12.653714a9.728 9.728 0 0 1-10.898286 2.340572l-43.008-17.846857a9.728 9.728 0 0 1-5.705142-11.410286l206.994285-803.986286a9.728 9.728 0 0 1 16.237715-4.534857l49.737142 48.786286a9.728 9.728 0 0 1 2.779429 8.996571c-0.438857 2.048-44.032 206.994286-46.665143 253.147429-1.462857 24.502857 8.265143 49.737143 26.624 69.046857 19.748571 20.992 59.465143 46.006857 136.338286 46.006857 43.373714 0 83.382857 5.632 118.857143 16.749714a273.408 273.408 0 0 1 76.580571 37.302857c38.326857 27.062857 52.882286 54.491429 53.467429 55.588572a9.728 9.728 0 0 1 1.097143 4.534857V812.690286a9.728 9.728 0 0 1-5.193143 8.630857z"  horiz-adv-x="1024" />

    
    <glyph glyph-name="tubiao-jiahao" unicode="&#59268;" d="M477.866667 418.133333v136.533334a34.133333 34.133333 0 0 0 68.266666 0v-136.533334h136.533334a34.133333 34.133333 0 0 0 0-68.266666h-136.533334v-136.533334a34.133333 34.133333 0 0 0-68.266666 0v136.533334h-136.533334a34.133333 34.133333 0 0 0 0 68.266666h136.533334z m34.133333 443.733334c263.918933 0 477.866667-213.947733 477.866667-477.866667s-213.947733-477.866667-477.866667-477.866667S34.133333 120.081067 34.133333 384 248.081067 861.866667 512 861.866667z m0-34.133334C266.922667 827.733333 68.266667 629.077333 68.266667 384s198.656-443.733333 443.733333-443.733333 443.733333 198.656 443.733333 443.733333S757.077333 827.733333 512 827.733333z"  horiz-adv-x="1024" />

    
    <glyph glyph-name="tubiao-jianhao" unicode="&#59269;" d="M512 861.866667c263.918933 0 477.866667-213.947733 477.866667-477.866667s-213.947733-477.866667-477.866667-477.866667S34.133333 120.081067 34.133333 384 248.081067 861.866667 512 861.866667z m0-34.133334C266.922667 827.733333 68.266667 629.077333 68.266667 384s198.656-443.733333 443.733333-443.733333 443.733333 198.656 443.733333 443.733333S757.077333 827.733333 512 827.733333z m-170.666667-409.6h341.333334a34.133333 34.133333 0 0 0 0-68.266666H341.333333a34.133333 34.133333 0 0 0 0 68.266666z"  horiz-adv-x="1024" />

    
    <glyph glyph-name="long-arrow-rt" unicode="&#59244;" d="M3.190031 434.04361359l861.30841101 2e-8L864.49844201 354.29283461 3.19003099 354.29283461l1e-8 79.75077898zM823.02803698 513.79439262L1023.99999999 395.7632396l-200.97196301-121.22118401 0 239.25233703z"  horiz-adv-x="1024" />

    
    <glyph glyph-name="bingxingtu" unicode="&#59018;" d="M447.3344 774.5024v-454.912h454.912a385.9456 385.9456 0 0 0-25.9072-88.1664 397.5168 397.5168 0 0 0-85.248-125.9008 399.0528 399.0528 0 0 0-125.952-85.248 387.9424 387.9424 0 0 0-152.9856-31.232 389.888 389.888 0 0 0-153.088 31.232 397.5168 397.5168 0 0 0-125.9008 85.248 399.0528 399.0528 0 0 0-85.248 125.952 387.9424 387.9424 0 0 0-31.232 153.0368c0 52.8896 10.5984 104.3456 31.232 153.0368a398.7456 398.7456 0 0 0 85.1456 125.952 399.0528 399.0528 0 0 0 125.952 85.1968 397.312 397.312 0 0 0 88.32 25.8048zM512.2048 844.8c-252.416 0-460.1856-207.7696-460.1856-460.2368 0-252.416 207.7184-460.288 460.288-460.288s460.288 207.7696 460.288 460.288h-460.288L512.2048 844.8zM630.4768 771.5840000000001a341.8112 341.8112 0 0 0 174.592-94.2592 344.1152 344.1152 0 0 0 73.1136-108.3392c9.216-21.6064 16.0256-43.8784 20.48-66.7136l-269.312 0.1024 1.1264 269.2608z m-64.512 71.424l-1.6384-405.6064 405.6064-0.1024v0.1024c-0.1024 221.9008-182.1696 404.6848-403.968 405.6064z"  horiz-adv-x="1024" />

    


  </font>
</defs>
</svg>
